<?xml version="1.0" encoding="utf-8"?>
<!-- Generator: Adobe Illustrator 22.1.0, SVG Export Plug-In . SVG Version: 6.00 Build 0)  -->
<svg version="1.1" id="Слой_1" xmlns="http://www.w3.org/2000/svg" xmlns:xlink="http://www.w3.org/1999/xlink" x="0px" y="0px"
	 viewBox="0 0 103 914" style="enable-background:new 0 0 103 914;" xml:space="preserve">
<style type="text/css">
	.st0{fill:url(#XMLID_4_);}
	.st1{fill:url(#XMLID_5_);}
	.st2{fill:url(#XMLID_6_);}
	.st3{fill:url(#XMLID_7_);}
	.st4{fill:url(#XMLID_8_);}
	.st5{fill:url(#XMLID_9_);}
	.st6{fill:url(#XMLID_10_);}
	.st7{fill:url(#XMLID_11_);}
	.st8{fill:url(#XMLID_12_);}
	.st9{fill:url(#SVGID_1_);}
</style>
<linearGradient id="XMLID_4_" gradientUnits="userSpaceOnUse" x1="75.2" y1="-246.1154" x2="75.2" y2="1776.8701" gradientTransform="matrix(-1 0 0 -1 103.2 916)">
	<stop  offset="0.3137" style="stop-color:#8C5239"/>
	<stop  offset="1" style="stop-color:#C7BCB2"/>
</linearGradient>
<rect id="XMLID_20_" x="27.5" y="335.4" class="st0" width="1" height="97.7"/>
<linearGradient id="XMLID_5_" gradientUnits="userSpaceOnUse" x1="75.2" y1="-246.1154" x2="75.2" y2="1776.8701" gradientTransform="matrix(-1 0 0 -1 103.2 916)">
	<stop  offset="0.3137" style="stop-color:#8C5239"/>
	<stop  offset="1" style="stop-color:#C7BCB2"/>
</linearGradient>
<polygon id="XMLID_19_" class="st1" points="27.5,243.4 28.5,243.4 28.5,306.6 27.5,306.6 "/>
<g>
	
		<linearGradient id="XMLID_6_" gradientUnits="userSpaceOnUse" x1="-5974.5649" y1="3247.4788" x2="-5974.5649" y2="6071.229" gradientTransform="matrix(1 0 0 -1 6011.7651 -339.7)">
		<stop  offset="0.3137" style="stop-color:#8C5239"/>
		<stop  offset="1" style="stop-color:#C7BCB2"/>
	</linearGradient>
	<polygon id="XMLID_21_" class="st2" points="37.2,663.1 37.2,663.1 37.2,855.7 37.2,855.7 	"/>
	
		<linearGradient id="XMLID_7_" gradientUnits="userSpaceOnUse" x1="32.5" y1="-94.917" x2="32.5" y2="1153.0447" gradientTransform="matrix(-1 0 0 -1 103.2 916)">
		<stop  offset="0.3137" style="stop-color:#8C5239"/>
		<stop  offset="1" style="stop-color:#C7BCB2"/>
	</linearGradient>
	<path id="XMLID_25_" class="st3" d="M54.8,717.2c1.9,40.8,27.1,47.9,30,49.7h2.9v129.4h-1V768.6C78.9,766.9,54.7,754.4,54.8,717.2
		l-1.1-306.8l0,0L54.8,717.2z"/>
	
		<linearGradient id="XMLID_8_" gradientUnits="userSpaceOnUse" x1="25.3" y1="-55.1242" x2="25.3" y2="747.9633" gradientTransform="matrix(-1 0 0 -1 103.2 916)">
		<stop  offset="0.3137" style="stop-color:#8C5239"/>
		<stop  offset="1" style="stop-color:#C7BCB2"/>
	</linearGradient>
	<path id="XMLID_24_" class="st4" d="M62.4,776.5c1,7.9,4.9,15.9,9.7,20.5c8.7,6.8,19.4,5.7,21.3,5.7h1v87.9l-1-1.1v-85.6
		c-4.9,1.1-14.6,1.1-22.3-5.7C66.3,793.6,62.4,785.6,62.4,776.5l-1-182.6l1,1.1V776.5z"/>
	
		<linearGradient id="XMLID_9_" gradientUnits="userSpaceOnUse" x1="73.3" y1="-42.9279" x2="73.3" y2="638.5665" gradientTransform="matrix(-1 0 0 -1 103.2 916)">
		<stop  offset="0.3137" style="stop-color:#8C5239"/>
		<stop  offset="1" style="stop-color:#C7BCB2"/>
	</linearGradient>
	<polygon id="XMLID_23_" class="st5" points="45.9,903.2 44.9,903.2 44.9,868.3 13.9,868.3 13.9,867.3 45.9,867.3 	"/>
	
		<linearGradient id="XMLID_10_" gradientUnits="userSpaceOnUse" x1="75.2" y1="-246.1154" x2="75.2" y2="1776.8701" gradientTransform="matrix(-1 0 0 -1 103.2 916)">
		<stop  offset="0.3137" style="stop-color:#8C5239"/>
		<stop  offset="1" style="stop-color:#C7BCB2"/>
	</linearGradient>
	<rect id="XMLID_22_" x="27.5" y="470.5" class="st6" width="1" height="385.2"/>
	
		<linearGradient id="XMLID_11_" gradientUnits="userSpaceOnUse" x1="18.6257" y1="-196.7048" x2="18.6257" y2="1154.4788" gradientTransform="matrix(-1 0 0 -1 103.2 916)">
		<stop  offset="0.3137" style="stop-color:#8C5239"/>
		<stop  offset="1" style="stop-color:#C7BCB2"/>
	</linearGradient>
	<path id="XMLID_2_" class="st7" d="M75.9,550.9v195.9c0,1.9-1,49.9,17.4,55.7l0,0c-19.3-5.8-17.4-55.7-17.4-55.7V550.9v-42.2h1
		L75.9,550.9z"/>
	
		<linearGradient id="XMLID_12_" gradientUnits="userSpaceOnUse" x1="0.65" y1="-226.8616" x2="0.65" y2="2021.926" gradientTransform="matrix(-1 0 0 -1 103.2 916)">
		<stop  offset="0.3137" style="stop-color:#8C5239"/>
		<stop  offset="1" style="stop-color:#C7BCB2"/>
	</linearGradient>
	<polygon id="XMLID_1_" class="st8" points="102.1,674.4 103,674.4 103,878.9 102.1,878.9 	"/>
	
		<linearGradient id="SVGID_1_" gradientUnits="userSpaceOnUse" x1="101.9" y1="235.8219" x2="101.9" y2="944.6305" gradientTransform="matrix(-1 0 0 -1 103.2 916)">
		<stop  offset="0.231" style="stop-color:#8C5239"/>
		<stop  offset="0.7546" style="stop-color:#C7BCB2;stop-opacity:0.6"/>
		<stop  offset="1" style="stop-color:#C7BCB2;stop-opacity:0"/>
	</linearGradient>
	<path class="st9" d="M0.2,1.5l0,910.4c0,0.6,0.5,1.1,1.1,1.1l0,0c0.6,0,1.1-0.5,1.1-1.1V1.6c0-0.6-0.5-1.1-1.1-1.1l0,0
		C0.7,0.5,0.2,0.9,0.2,1.5z"/>
</g>
</svg>
