<?xml version="1.0" encoding="utf-8"?>
<!-- Generator: Adobe Illustrator 22.1.0, SVG Export Plug-In . SVG Version: 6.00 Build 0)  -->
<svg version="1.1" id="Слой_1" xmlns="http://www.w3.org/2000/svg" xmlns:xlink="http://www.w3.org/1999/xlink" x="0px" y="0px"
	 viewBox="0 0 103 914" style="enable-background:new 0 0 103 914;" xml:space="preserve">
<style type="text/css">
	.st0{fill:url(#XMLID_4_);}
	.st1{fill:url(#XMLID_5_);}
	.st2{fill:url(#XMLID_6_);}
	.st3{fill:url(#XMLID_7_);}
	.st4{fill:url(#XMLID_8_);}
	.st5{fill:url(#XMLID_9_);}
	.st6{fill:url(#XMLID_10_);}
	.st7{fill:url(#XMLID_11_);}
	.st8{fill:url(#XMLID_12_);}
	.st9{fill:url(#SVGID_1_);}
</style>
<linearGradient id="XMLID_4_" gradientUnits="userSpaceOnUse" x1="75.209" y1="1162.1154" x2="75.209" y2="-860.8701">
	<stop  offset="0.3137" style="stop-color:#8C5239"/>
	<stop  offset="1" style="stop-color:#C7BCB2"/>
</linearGradient>
<rect id="XMLID_20_" x="74.7" y="335.4" class="st0" width="1" height="97.7"/>
<linearGradient id="XMLID_5_" gradientUnits="userSpaceOnUse" x1="75.209" y1="1162.1154" x2="75.209" y2="-860.8701">
	<stop  offset="0.3137" style="stop-color:#8C5239"/>
	<stop  offset="1" style="stop-color:#C7BCB2"/>
</linearGradient>
<polygon id="XMLID_19_" class="st1" points="75.7,306.6 74.7,306.6 74.7,243.4 75.7,243.4 "/>
<g>
	
		<linearGradient id="XMLID_6_" gradientUnits="userSpaceOnUse" x1="-4158.5737" y1="-2331.4788" x2="-4158.5737" y2="-5155.229" gradientTransform="matrix(-1 0 0 1 -4092.5652 -1255.7)">
		<stop  offset="0.3137" style="stop-color:#8C5239"/>
		<stop  offset="1" style="stop-color:#C7BCB2"/>
	</linearGradient>
	<polygon id="XMLID_21_" class="st2" points="66,855.7 66,855.7 66,663.1 66,663.1 	"/>
	<linearGradient id="XMLID_7_" gradientUnits="userSpaceOnUse" x1="32.5962" y1="1010.917" x2="32.5962" y2="-237.0447">
		<stop  offset="0.3137" style="stop-color:#8C5239"/>
		<stop  offset="1" style="stop-color:#C7BCB2"/>
	</linearGradient>
	<path id="XMLID_25_" class="st3" d="M49.5,410.4L49.5,410.4l-1,306.8c0,37.2-24.2,49.7-32,51.4v127.7h-1V766.9h2.9
		c2.9-1.8,28.1-8.9,30-49.7L49.5,410.4z"/>
	<linearGradient id="XMLID_8_" gradientUnits="userSpaceOnUse" x1="25.3327" y1="971.1242" x2="25.3327" y2="168.0367">
		<stop  offset="0.3137" style="stop-color:#8C5239"/>
		<stop  offset="1" style="stop-color:#C7BCB2"/>
	</linearGradient>
	<path id="XMLID_24_" class="st4" d="M40.8,595l1-1.1l-1,182.6c0,9.1-3.9,17.1-8.7,21.7c-7.7,6.8-17.4,6.8-22.3,5.7v85.6l-1,1.1
		v-87.9h1c1.9,0,12.6,1.1,21.3-5.7c4.8-4.6,8.7-12.6,9.7-20.5V595z"/>
	<linearGradient id="XMLID_9_" gradientUnits="userSpaceOnUse" x1="73.272" y1="958.9279" x2="73.272" y2="277.4335">
		<stop  offset="0.3137" style="stop-color:#8C5239"/>
		<stop  offset="1" style="stop-color:#C7BCB2"/>
	</linearGradient>
	<polygon id="XMLID_23_" class="st5" points="57.3,867.3 89.3,867.3 89.3,868.3 58.3,868.3 58.3,903.2 57.3,903.2 	"/>
	<linearGradient id="XMLID_10_" gradientUnits="userSpaceOnUse" x1="75.209" y1="1162.1154" x2="75.209" y2="-860.8701">
		<stop  offset="0.3137" style="stop-color:#8C5239"/>
		<stop  offset="1" style="stop-color:#C7BCB2"/>
	</linearGradient>
	<rect id="XMLID_22_" x="74.7" y="470.5" class="st6" width="1" height="385.2"/>
	<linearGradient id="XMLID_11_" gradientUnits="userSpaceOnUse" x1="18.5803" y1="1112.7048" x2="18.5803" y2="-238.4787">
		<stop  offset="0.3137" style="stop-color:#8C5239"/>
		<stop  offset="1" style="stop-color:#C7BCB2"/>
	</linearGradient>
	<path id="XMLID_2_" class="st7" d="M26.3,508.7h1v42.2v195.9c0,0,1.9,49.9-17.4,55.7l0,0c18.4-5.8,17.4-53.8,17.4-55.7V550.9
		L26.3,508.7z"/>
	<linearGradient id="XMLID_12_" gradientUnits="userSpaceOnUse" x1="0.6367" y1="1142.8616" x2="0.6367" y2="-1105.926">
		<stop  offset="0.3137" style="stop-color:#8C5239"/>
		<stop  offset="1" style="stop-color:#C7BCB2"/>
	</linearGradient>
	<polygon id="XMLID_1_" class="st8" points="1.1,878.9 0.2,878.9 0.2,674.4 1.1,674.4 	"/>
	<linearGradient id="SVGID_1_" gradientUnits="userSpaceOnUse" x1="101.9368" y1="680.1781" x2="101.9368" y2="-28.6305">
		<stop  offset="0.231" style="stop-color:#8C5239"/>
		<stop  offset="0.7546" style="stop-color:#C7BCB2;stop-opacity:0.6"/>
		<stop  offset="1" style="stop-color:#C7BCB2;stop-opacity:0"/>
	</linearGradient>
	<path class="st9" d="M101.9,0.5L101.9,0.5c-0.6,0-1.1,0.5-1.1,1.1v910.3c0,0.6,0.5,1.1,1.1,1.1l0,0c0.6,0,1.1-0.5,1.1-1.1V1.5
		C103,0.9,102.5,0.5,101.9,0.5z"/>
</g>
</svg>
