<?xml version="1.0" encoding="utf-8"?>
<!-- Generator: Adobe Illustrator 22.1.0, SVG Export Plug-In . SVG Version: 6.00 Build 0)  -->
<svg version="1.1" id="Слой_1" xmlns="http://www.w3.org/2000/svg" xmlns:xlink="http://www.w3.org/1999/xlink" x="0px" y="0px"
	 viewBox="0 0 1501 806" style="enable-background:new 0 0 1501 806;" xml:space="preserve">
<style type="text/css">
	.st0{opacity:0.5;}
	.st1{fill:url(#SVGID_1_);}
	.st2{fill:url(#SVGID_2_);}
	.st3{fill:url(#SVGID_3_);}
	.st4{fill:url(#SVGID_4_);}
	.st5{opacity:0.38;}
	.st6{fill:url(#SVGID_5_);}
	.st7{fill:url(#SVGID_6_);}
	.st8{fill:url(#SVGID_7_);}
	.st9{fill:url(#SVGID_8_);}
	.st10{fill:url(#XMLID_17_);}
	.st11{fill:url(#XMLID_18_);}
	.st12{fill:url(#XMLID_26_);}
	.st13{fill:url(#XMLID_27_);}
	.st14{fill:url(#XMLID_28_);}
	.st15{fill:url(#XMLID_30_);}
	.st16{fill:url(#XMLID_31_);}
	.st17{fill:url(#XMLID_32_);}
	.st18{fill:url(#XMLID_33_);}
	.st19{fill:url(#XMLID_34_);}
	.st20{fill:url(#XMLID_35_);}
	.st21{fill:url(#XMLID_36_);}
	.st22{fill:url(#XMLID_37_);}
	.st23{fill:url(#XMLID_38_);}
	.st24{fill:url(#XMLID_39_);}
	.st25{fill:url(#XMLID_40_);}
	.st26{fill:url(#XMLID_41_);}
	.st27{fill:url(#XMLID_42_);}
	.st28{fill:url(#XMLID_43_);}
	.st29{opacity:0.73;}
	.st30{fill:url(#SVGID_9_);}
	.st31{fill:url(#SVGID_10_);}
	.st32{fill:url(#SVGID_11_);}
	.st33{fill:url(#SVGID_12_);}
	.st34{fill:url(#SVGID_13_);}
	.st35{fill:url(#SVGID_14_);}
	.st36{fill:url(#SVGID_15_);}
	.st37{fill:url(#SVGID_16_);}
	.st38{fill:url(#SVGID_17_);}
	.st39{fill:url(#SVGID_18_);}
</style>
<g class="st0">
	<linearGradient id="SVGID_1_" gradientUnits="userSpaceOnUse" x1="750.1047" y1="97.7994" x2="750.1047" y2="97.7994">
		<stop  offset="0" style="stop-color:#995239"/>
		<stop  offset="0.3711" style="stop-color:#8C5239"/>
		<stop  offset="1" style="stop-color:#C7BCB2"/>
	</linearGradient>
	<line class="st1" x1="299.4" y1="97.8" x2="1200.9" y2="97.8"/>
	<linearGradient id="SVGID_2_" gradientUnits="userSpaceOnUse" x1="750.1047" y1="692" x2="750.1047" y2="69.8425">
		<stop  offset="0" style="stop-color:#995239"/>
		<stop  offset="0.3711" style="stop-color:#8C5239"/>
		<stop  offset="1" style="stop-color:#C7BCB2"/>
	</linearGradient>
	<rect x="299.4" y="96.8" class="st2" width="901.5" height="2"/>
</g>
<g class="st0">
	<linearGradient id="SVGID_3_" gradientUnits="userSpaceOnUse" x1="750.1047" y1="484.3189" x2="750.1047" y2="484.3189">
		<stop  offset="0" style="stop-color:#995239"/>
		<stop  offset="0.3711" style="stop-color:#8C5239"/>
		<stop  offset="1" style="stop-color:#C7BCB2"/>
	</linearGradient>
	<line class="st3" x1="299.4" y1="484.3" x2="1200.9" y2="484.3"/>
	<linearGradient id="SVGID_4_" gradientUnits="userSpaceOnUse" x1="750.1047" y1="754" x2="750.1047" y2="131.8425">
		<stop  offset="0" style="stop-color:#995239"/>
		<stop  offset="0.3711" style="stop-color:#8C5239"/>
		<stop  offset="1" style="stop-color:#C7BCB2"/>
	</linearGradient>
	<rect x="299.4" y="483.3" class="st4" width="901.5" height="2"/>
</g>
<g class="st5">
	<linearGradient id="SVGID_5_" gradientUnits="userSpaceOnUse" x1="793.1667" y1="754" x2="793.1667" y2="131.8425">
		<stop  offset="0" style="stop-color:#995239"/>
		<stop  offset="0.3711" style="stop-color:#8C5239"/>
		<stop  offset="1" style="stop-color:#C7BCB2"/>
	</linearGradient>
	<line class="st6" x1="755.8" y1="631.1" x2="830.5" y2="484.3"/>
	<linearGradient id="SVGID_6_" gradientUnits="userSpaceOnUse" x1="793.1665" y1="754" x2="793.1665" y2="131.8425">
		<stop  offset="0" style="stop-color:#995239"/>
		<stop  offset="0.3711" style="stop-color:#8C5239"/>
		<stop  offset="1" style="stop-color:#C7BCB2"/>
	</linearGradient>
	<polygon class="st7" points="756.7,631.5 754.9,630.6 829.6,483.9 831.4,484.8 	"/>
</g>
<g class="st5">
	<linearGradient id="SVGID_7_" gradientUnits="userSpaceOnUse" x1="711.8707" y1="754" x2="711.8707" y2="131.8425">
		<stop  offset="0" style="stop-color:#995239"/>
		<stop  offset="0.3711" style="stop-color:#8C5239"/>
		<stop  offset="1" style="stop-color:#C7BCB2"/>
	</linearGradient>
	<line class="st8" x1="749.2" y1="631.1" x2="674.5" y2="484.3"/>
	<linearGradient id="SVGID_8_" gradientUnits="userSpaceOnUse" x1="711.8708" y1="754" x2="711.8708" y2="131.8425">
		<stop  offset="0" style="stop-color:#995239"/>
		<stop  offset="0.3711" style="stop-color:#8C5239"/>
		<stop  offset="1" style="stop-color:#C7BCB2"/>
	</linearGradient>
	<polygon class="st9" points="748.3,631.6 673.6,484.8 675.4,483.9 750.1,630.7 	"/>
</g>
<g id="XMLID_1_" class="st5">
	<g id="XMLID_2_">
		<g id="XMLID_3_">
			<g id="XMLID_4_">
				<linearGradient id="XMLID_17_" gradientUnits="userSpaceOnUse" x1="742.9443" y1="754" x2="742.9443" y2="131.8425">
					<stop  offset="0" style="stop-color:#995239"/>
					<stop  offset="0.3711" style="stop-color:#8C5239"/>
					<stop  offset="1" style="stop-color:#C7BCB2"/>
				</linearGradient>
				<path id="XMLID_29_" class="st10" d="M735.3,658.8l-0.1-0.3l0-4.6c-0.1-0.3,0.1-0.4,0.4-0.5c0.3-0.1,0.5-0.3,0.5-0.3l4.6,0
					l0.1-2.4l-4.6,0c-0.3,0.1-0.4-0.1-0.5-0.4c-0.1-0.3-0.3-0.5-0.3-0.5l0.2-5.4c0.1-0.4,0.3-0.8,0.9-0.8c0.4,0.1,0.8,0.3,0.8,0.9
					l-0.1,4.4l4.6,0c0.3-0.1,0.4,0.1,0.5,0.4c0.1,0.3,0.3,0.5,0.3,0.5l-0.2,4.1c0.1,0.3-0.1,0.4-0.4,0.5s-0.5,0.3-0.5,0.3l-4.6,0
					l-0.1,3l9.4,0.2l0-4c0.1-0.4,0.3-0.8,0.9-0.8l3,0.1c0.4,0.1,0.8,0.3,0.8,0.9c-0.1,0.4-0.3,0.8-0.9,0.8l-2,0l0,4
					c-0.1,0.4-0.3,0.8-0.9,0.8l-10.9,0C735.8,659.2,735.8,659.2,735.3,658.8C735.4,659.1,735.3,658.8,735.3,658.8z"/>
				<linearGradient id="XMLID_18_" gradientUnits="userSpaceOnUse" x1="743.2977" y1="754" x2="743.2977" y2="131.8425">
					<stop  offset="0" style="stop-color:#995239"/>
					<stop  offset="0.3711" style="stop-color:#8C5239"/>
					<stop  offset="1" style="stop-color:#C7BCB2"/>
				</linearGradient>
				<path id="XMLID_25_" class="st11" d="M735.7,644.7l-0.1-0.3c0.1-0.4,0.3-0.8,0.9-0.8l4.6,0l0.1-2.4l-4.7-0.2
					c-0.3,0.1-0.4-0.1-0.5-0.4c-0.1-0.3-0.3-0.5-0.3-0.5l0-4.6c-0.1-0.3,0.1-0.4,0.4-0.5c0.3-0.1,0.5-0.3,0.5-0.3l10.9,0
					c0.3-0.1,0.4,0.1,0.5,0.4c0.1,0.3,0.1,0.3,0.3,0.5l0,4l2,0c0.4,0.1,0.8,0.3,0.8,0.9c-0.1,0.4-0.3,0.8-0.9,0.8l-2.9,0.2
					c-0.4-0.1-0.8-0.3-0.8-0.9l0-4l-9.4-0.2l-0.1,3l4.6,0c0.4,0.1,0.8,0.3,0.8,0.9l-0.2,4.1c-0.1,0.4-0.3,0.8-0.9,0.8l-5.3,0.1
					C735.9,645.3,735.8,645,735.7,644.7z"/>
				<linearGradient id="XMLID_26_" gradientUnits="userSpaceOnUse" x1="752.791" y1="754" x2="752.791" y2="131.8425">
					<stop  offset="0" style="stop-color:#995239"/>
					<stop  offset="0.3711" style="stop-color:#8C5239"/>
					<stop  offset="1" style="stop-color:#C7BCB2"/>
				</linearGradient>
				<path id="XMLID_24_" class="st12" d="M748,662.3l-0.1-0.3l0.1-3c0.1-0.4,0.3-0.8,0.9-0.8l8,0.2c0.3-0.1,0.4,0.1,0.5,0.4
					c0.1,0.3,0.3,0.5,0.3,0.5l-0.1,3c-0.1,0.4-0.3,0.8-0.9,0.8l-8-0.2C748.5,662.7,748.3,662.8,748,662.3
					C748.1,662.5,748,662.3,748,662.3z M749.7,659.7l0,1.3l6.3,0.1l0-1.3L749.7,659.7z"/>
				<linearGradient id="XMLID_27_" gradientUnits="userSpaceOnUse" x1="753.1578" y1="754" x2="753.1578" y2="131.8425">
					<stop  offset="0" style="stop-color:#995239"/>
					<stop  offset="0.3711" style="stop-color:#8C5239"/>
					<stop  offset="1" style="stop-color:#C7BCB2"/>
				</linearGradient>
				<path id="XMLID_23_" class="st13" d="M748.4,635.2l-0.1-0.3l0.1-3c0.1-0.4,0.3-0.8,0.9-0.8l8,0.2c0.4,0.1,0.8,0.3,0.8,0.9
					l-0.1,3c0.1,0.3-0.1,0.4-0.4,0.5c-0.3,0.1-0.5,0.3-0.5,0.3l-8-0.2C748.6,635.8,748.5,635.5,748.4,635.2L748.4,635.2z
					 M749.8,632.8l0,1.3l6.3,0.1l0-1.3L749.8,632.8z"/>
				<linearGradient id="XMLID_28_" gradientUnits="userSpaceOnUse" x1="753.6568" y1="754" x2="753.6568" y2="131.8425">
					<stop  offset="0" style="stop-color:#995239"/>
					<stop  offset="0.3711" style="stop-color:#8C5239"/>
					<stop  offset="1" style="stop-color:#C7BCB2"/>
				</linearGradient>
				<path id="XMLID_22_" class="st14" d="M748.9,571.7l-0.1-0.3l0.1-3c-0.1-0.3,0.1-0.4,0.4-0.5c0.3-0.1,0.5-0.3,0.5-0.3l8,0.2
					c0.3-0.1,0.4,0.1,0.5,0.4c0.1,0.3,0.3,0.5,0.3,0.5l-0.1,3c-0.1,0.4-0.3,0.8-0.9,0.8l-8-0.2C749.4,572.1,749,571.9,748.9,571.7z
					 M750.5,569.2l0,1.3l6.3,0.1l0-1.3L750.5,569.2z"/>
				<linearGradient id="XMLID_30_" gradientUnits="userSpaceOnUse" x1="750.6671" y1="754" x2="750.6671" y2="131.8425">
					<stop  offset="0" style="stop-color:#995239"/>
					<stop  offset="0.3711" style="stop-color:#8C5239"/>
					<stop  offset="1" style="stop-color:#C7BCB2"/>
				</linearGradient>
				<path id="XMLID_21_" class="st15" d="M749.8,659.4l-0.1-0.3l0.3-24c0.1-0.4,0.3-0.8,0.9-0.8c0.4,0.1,0.8,0.3,0.8,0.9l-0.3,24
					c-0.1,0.4-0.3,0.8-0.9,0.8C750.1,659.9,749.9,659.6,749.8,659.4z"/>
				<linearGradient id="XMLID_31_" gradientUnits="userSpaceOnUse" x1="754.8209" y1="754" x2="754.8209" y2="131.8425">
					<stop  offset="0" style="stop-color:#995239"/>
					<stop  offset="0.3711" style="stop-color:#8C5239"/>
					<stop  offset="1" style="stop-color:#C7BCB2"/>
				</linearGradient>
				<path id="XMLID_20_" class="st16" d="M754,659.2l-0.1-0.3l0.1-23.6c0.1-0.4,0.3-0.8,0.9-0.8c0.4,0.1,0.8,0.3,0.8,0.9l-0.1,23.6
					c-0.1,0.4-0.3,0.8-0.9,0.8C754.6,659.6,754.2,659.4,754,659.2z"/>
				<linearGradient id="XMLID_32_" gradientUnits="userSpaceOnUse" x1="750.8414" y1="754" x2="750.8414" y2="131.8425">
					<stop  offset="0" style="stop-color:#995239"/>
					<stop  offset="0.3711" style="stop-color:#8C5239"/>
					<stop  offset="1" style="stop-color:#C7BCB2"/>
				</linearGradient>
				<path id="XMLID_19_" class="st17" d="M749.9,632.5l-0.1-0.3l0.4-59.9c0.1-0.4,0.3-0.8,0.9-0.8c0.4,0.1,0.8,0.3,0.8,0.9
					l-0.4,59.9c-0.1,0.4-0.3,0.8-0.9,0.8C750.4,632.8,750,632.7,749.9,632.5z"/>
				<linearGradient id="XMLID_33_" gradientUnits="userSpaceOnUse" x1="755.3176" y1="754" x2="755.3176" y2="131.8425">
					<stop  offset="0" style="stop-color:#995239"/>
					<stop  offset="0.3711" style="stop-color:#8C5239"/>
					<stop  offset="1" style="stop-color:#C7BCB2"/>
				</linearGradient>
				<path id="XMLID_15_" class="st18" d="M754.4,631.5l-0.1-0.3l0.4-59.2c0.1-0.4,0.3-0.8,0.9-0.8c0.4,0.1,0.8,0.3,0.8,0.9
					l-0.5,58.9c-0.1,0.4-0.3,0.8-0.9,0.8C754.7,632,754.5,631.7,754.4,631.5z"/>
				<linearGradient id="XMLID_34_" gradientUnits="userSpaceOnUse" x1="748.6895" y1="754" x2="748.6895" y2="131.8425">
					<stop  offset="0" style="stop-color:#995239"/>
					<stop  offset="0.3711" style="stop-color:#8C5239"/>
					<stop  offset="1" style="stop-color:#C7BCB2"/>
				</linearGradient>
				<path id="XMLID_14_" class="st19" d="M746.3,649.2l-0.1-0.3l0.1-3.7c0.1-0.4,0.3-0.8,0.9-0.8l3.3,0c0.4,0.1,0.8,0.3,0.8,0.9
					c-0.1,0.4-0.3,0.8-0.9,0.8l-2.6,0l0,2l2.6,0c0.4,0.1,0.8,0.3,0.8,0.9c-0.1,0.4-0.3,0.8-0.9,0.8l-3.3,0
					C746.8,649.6,746.7,649.4,746.3,649.2C746.5,649.1,746.3,649.2,746.3,649.2z"/>
				<linearGradient id="XMLID_35_" gradientUnits="userSpaceOnUse" x1="752.5573" y1="754" x2="752.5573" y2="131.8425">
					<stop  offset="0" style="stop-color:#995239"/>
					<stop  offset="0.3711" style="stop-color:#8C5239"/>
					<stop  offset="1" style="stop-color:#C7BCB2"/>
				</linearGradient>
				<path id="XMLID_13_" class="st20" d="M749.7,665l-0.1-0.3l0-2.6c0.1-0.4,0.3-0.8,0.9-0.8c0.4,0.1,0.8,0.3,0.8,0.9l0,2l2.6,0
					l-0.2-2.2c0.1-0.4,0.3-0.8,0.9-0.8c0.4,0.1,0.8,0.3,0.8,0.9l0,2.6c-0.1,0.4-0.3,0.8-0.9,0.8l-4.4-0.1
					C750,665.5,749.9,665.3,749.7,665z"/>
				<linearGradient id="XMLID_36_" gradientUnits="userSpaceOnUse" x1="755.6483" y1="754" x2="755.6483" y2="131.8425">
					<stop  offset="0" style="stop-color:#995239"/>
					<stop  offset="0.3711" style="stop-color:#8C5239"/>
					<stop  offset="1" style="stop-color:#C7BCB2"/>
				</linearGradient>
				<path id="XMLID_12_" class="st21" d="M754.9,568.6l-0.1-0.3l0.1-6.3c0.1-0.4,0.3-0.8,0.9-0.8c0.4,0.1,0.8,0.3,0.8,0.9l-0.1,6.3
					c-0.1,0.4-0.3,0.8-0.9,0.8C755.2,569.1,755,568.8,754.9,568.6z"/>
				<linearGradient id="XMLID_37_" gradientUnits="userSpaceOnUse" x1="751.4308" y1="754" x2="751.4308" y2="131.8425">
					<stop  offset="0" style="stop-color:#995239"/>
					<stop  offset="0.3711" style="stop-color:#8C5239"/>
					<stop  offset="1" style="stop-color:#C7BCB2"/>
				</linearGradient>
				<path id="XMLID_11_" class="st22" d="M750.7,568.8l-0.1-0.3l0.1-6.3c0.1-0.4,0.3-0.8,0.9-0.8c0.4,0.1,0.8,0.3,0.8,0.9l-0.1,6.3
					c-0.1,0.4-0.3,0.8-0.9,0.8C750.9,569.3,750.8,569,750.7,568.8z"/>
				<linearGradient id="XMLID_38_" gradientUnits="userSpaceOnUse" x1="753.6348" y1="754" x2="753.6348" y2="131.8425">
					<stop  offset="0" style="stop-color:#995239"/>
					<stop  offset="0.3711" style="stop-color:#8C5239"/>
					<stop  offset="1" style="stop-color:#C7BCB2"/>
				</linearGradient>
				<path id="XMLID_10_" class="st23" d="M727.4,545.9c-1.5-2.9-2-5.9-2.1-9.2c0-9,6.5-16.9,14.8-18.2c0.2-6.7,6.5-11.9,13.7-12
					c3.7,0.1,7,1.4,9.5,3.7c2.5,2.3,3.8,5.4,4,8.5c8.5,1.6,14.9,9.6,14.6,18.7c-0.1,5-2,9.6-5.4,13.4c-3.5,3.5-7.9,5.4-12.7,5.5l0,0
					c-4,0-7.4-1.5-10.6-3.8c-3.1,2.3-6.8,3.5-10.5,3.4c-4.7-0.2-9.4-2.1-12.6-5.8C729.1,548.7,728,547.2,727.4,545.9z M764.7,514.1
					c-0.5-1-1.3-2-2.3-3.1c-2.4-2.1-5.3-3.2-8.3-3.3c-6.6,0.1-12.1,4.9-12,10.8c-0.1,0.4-0.3,0.8-0.8,1.1c-8,1.1-14,8.2-14.2,16.9
					c0,4.6,1.5,8.8,4.6,12.2c3.1,3.4,6.9,5.1,11.3,5.2c3.7,0.1,7-1.3,10.1-3.5c0.3-0.1,0.8-0.4,1.1,0.1c2.9,2.5,6.2,3.8,9.9,3.8l0,0
					c4.4,0.1,8.4-1.7,11.4-4.9c3-3.2,4.8-7.4,4.7-12.1c0.2-8.7-5.8-15.9-13.8-17.1c-0.4-0.1-0.8-0.3-0.8-0.9l0,0
					C765.7,517.3,765.5,515.7,764.7,514.1z"/>
				<linearGradient id="XMLID_39_" gradientUnits="userSpaceOnUse" x1="740.132" y1="754" x2="740.132" y2="131.8425">
					<stop  offset="0" style="stop-color:#995239"/>
					<stop  offset="0.3711" style="stop-color:#8C5239"/>
					<stop  offset="1" style="stop-color:#C7BCB2"/>
				</linearGradient>
				<path id="XMLID_9_" class="st24" d="M731,543.4c-1.1-2.1-1.6-4.5-1.7-7.1c0-8.3,6.7-14.7,14.6-14.8c2.4,0.1,4.6,0.6,6.5,1.6
					c0.4,0.1,0.5,0.4,0.4,0.8c0.1,0.3,0,0.7-0.3,0.8c-3.7,2.5-6,7.1-6.1,12.1l0,0c0,4.6,1.9,8.9,5.4,11.8c0.1,0.3,0.3,0.5,0.4,0.8
					c-0.1,0.4-0.1,0.4-0.4,0.5c-1.8,0.9-3.9,1.4-6.2,1.5C738.1,551.4,733.4,548.1,731,543.4z M748.3,524.2c-1.3-0.6-3.2-1-4.5-1
					c-7-0.1-12.6,5.8-12.8,13.2c0.1,7.3,5.6,13.4,12.5,13.4c1.3,0,2.9-0.2,4.2-0.8c-3.2-3-4.8-7.5-4.9-12.1l0,0
					C743,531.9,745,527.3,748.3,524.2z"/>
				<linearGradient id="XMLID_40_" gradientUnits="userSpaceOnUse" x1="766.8118" y1="754" x2="766.8118" y2="131.8425">
					<stop  offset="0" style="stop-color:#995239"/>
					<stop  offset="0.3711" style="stop-color:#8C5239"/>
					<stop  offset="1" style="stop-color:#C7BCB2"/>
				</linearGradient>
				<path id="XMLID_8_" class="st25" d="M756.8,549.7l-0.1-0.3c-0.1-0.3,0-0.7,0.3-0.8c3.3-2.7,5.3-7,5.5-11.8
					c0.1-5-2.2-9.5-5.8-11.9c-0.1-0.3-0.3-0.5-0.4-0.8c0.1-0.4,0.1-0.4,0.4-0.5c2.1-1.1,4.5-1.6,6.4-1.7c7.9-0.1,14.4,6.8,14.3,14.9
					c0,4-1.6,7.8-4.2,10.5c-2.9,2.8-6.4,4.3-10.1,4.2c-2,0-4.2-0.5-6.1-1.5L756.8,549.7z M762.4,528.9c1.2,2.4,2,5.3,1.8,8l0,0
					c0,4.6-2,9-5,12.2c1.3,0.6,2.8,0.9,4.1,0.9c3.3,0,6.6-1.4,9.1-3.7c2.3-2.5,3.6-5.8,3.9-9.3c-0.1-7.3-5.6-13.4-12.5-13.4
					c-1.7-0.1-3.2,0.3-4.6,0.7C760.4,525.7,761.4,527.1,762.4,528.9z"/>
				<linearGradient id="XMLID_41_" gradientUnits="userSpaceOnUse" x1="753.9344" y1="754" x2="753.9344" y2="131.8425">
					<stop  offset="0" style="stop-color:#995239"/>
					<stop  offset="0.3711" style="stop-color:#8C5239"/>
					<stop  offset="1" style="stop-color:#C7BCB2"/>
				</linearGradient>
				<path id="XMLID_7_" class="st26" d="M744.7,519.1c-0.1-0.3-0.1-0.3,0-0.7c0.7-4.4,4.7-7.7,9.3-7.7c4.4,0.1,8.3,3.3,9.2,7.5
					c0.1,0.3,0,0.7-0.3,0.8s-0.5,0.3-0.8,0.4c-0.4-0.1-1.1-0.1-1.5-0.2c-2,0-4.2,0.8-5.8,2.3c-0.3,0.1-0.5,0.3-0.5,0.3
					c-0.3,0.1-0.4-0.1-0.5-0.4c-1.5-1.6-3.6-2.5-5.6-2.4c-0.7,0-1.6,0.1-2.2,0.2c-0.3,0.1-0.7,0-0.8-0.3
					C744.7,519.1,744.7,519.1,744.7,519.1z M760.7,516.6c-1.2-2.4-3.9-4.3-6.8-4.1c-3.3,0-6.3,1.9-7.3,5.1c0.4,0.1,0.9-0.1,1.3,0
					l0,0c2.4,0.1,4.5,1,6.2,2.4c1.8-1.6,4.1-2.4,6.4-2.3c0.3-0.1,0.4,0.1,0.4,0.1C760.9,517.1,760.8,516.8,760.7,516.6z"/>
				<linearGradient id="XMLID_42_" gradientUnits="userSpaceOnUse" x1="753.7657" y1="754" x2="753.7657" y2="131.8425">
					<stop  offset="0" style="stop-color:#995239"/>
					<stop  offset="0.3711" style="stop-color:#8C5239"/>
					<stop  offset="1" style="stop-color:#C7BCB2"/>
				</linearGradient>
				<path id="XMLID_6_" class="st27" d="M747.7,559c-0.5-1-0.7-2-0.7-3.3c0-0.7,0.2-1.5,0.5-2.2c0.1-0.4,0.4-0.5,0.7-0.7
					c2.9-0.8,4.8-2.8,4.8-2.8c0.3-0.1,0.5-0.3,0.5-0.3s0.4,0.1,0.5,0.4c1.6,1.8,4,2.6,5.4,2.8c0.4,0.1,0.5,0.4,0.7,0.7
					c0.4,0.8,0.4,1.4,0.4,2.1c-0.1,3.7-3.1,6.9-6.8,6.8C751.3,562.8,748.9,561.4,747.7,559z M748.8,554.8c-0.1,0.4-0.3,0.8-0.1,1.1
					c0,2.6,2.3,5.1,4.9,5.1s5.1-2.3,5.1-4.9l0,0c0.1-0.4-0.1-0.9-0.3-1.2c-1.5-0.2-3.6-1.1-5-2.7C752.7,552.8,751,554,748.8,554.8z"
					/>
				<linearGradient id="XMLID_43_" gradientUnits="userSpaceOnUse" x1="753.7567" y1="754" x2="753.7567" y2="131.8425">
					<stop  offset="0" style="stop-color:#995239"/>
					<stop  offset="0.3711" style="stop-color:#8C5239"/>
					<stop  offset="1" style="stop-color:#C7BCB2"/>
				</linearGradient>
				<path id="XMLID_5_" class="st28" d="M750.3,544.1c-5.3-10.2,2.8-19,3.1-19.2c0.3-0.1,0.5-0.3,0.5-0.3c0.3-0.1,0.4,0.1,0.5,0.4
					c10.4,12.5-0.1,22.9-0.4,23.1c-0.3,0.1-0.5,0.3-0.5,0.3c-0.3,0.1-0.4-0.1-0.5-0.4C751.8,547,751,545.4,750.3,544.1z
					 M753.8,527.1c-2.1,2.4-7.1,10.6-0.3,19.4C755.6,544,760.9,536.3,753.8,527.1z"/>
			</g>
		</g>
	</g>
</g>
<g class="st29">
	<linearGradient id="SVGID_9_" gradientUnits="userSpaceOnUse" x1="404.7906" y1="763.6845" x2="408.7906" y2="63.6845">
		<stop  offset="0.3137" style="stop-color:#8C5239"/>
		<stop  offset="1" style="stop-color:#C7BCB2"/>
	</linearGradient>
	<path class="st30" d="M433.5,313.6c-0.7,1.4-7.2,12.2-23.8,12.2c-17.8,0-28.2-13.6-28.2-30.5c0-16.8,10.4-30.5,28.2-30.5
		c16.9,0,23.3,11.1,23.9,12.2l-1.9,2c-18.3-22-40.2-7.4-40.2,16.2c0,21.8,21.8,38.3,40,16.4L433.5,313.6z"/>
	<linearGradient id="SVGID_10_" gradientUnits="userSpaceOnUse" x1="481.4934" y1="764.1228" x2="485.4934" y2="64.1228">
		<stop  offset="0.3137" style="stop-color:#8C5239"/>
		<stop  offset="1" style="stop-color:#C7BCB2"/>
	</linearGradient>
	<path class="st31" d="M512.4,294.9c0,21.2-12.6,30.5-28.2,30.5c-15.6,0-28.2-9.3-28.2-30.5c0-20.5,12.6-30.4,28.2-30.4
		C499.8,264.5,512.4,274.3,512.4,294.9z M502.8,294.9c0-18.8-8.3-27.8-18.6-27.8c-10.2,0-18.6,9.1-18.6,27.8
		c0,19.4,8.4,27.8,18.6,27.8C494.5,322.7,502.8,314.3,502.8,294.9z"/>
	<linearGradient id="SVGID_11_" gradientUnits="userSpaceOnUse" x1="563.4192" y1="764.5909" x2="567.4192" y2="64.591">
		<stop  offset="0.3137" style="stop-color:#8C5239"/>
		<stop  offset="1" style="stop-color:#C7BCB2"/>
	</linearGradient>
	<path class="st32" d="M598.3,324.4h-8.6l-7-40.2l-21.8,40.2l-19.9-37.5l-4.3,37.5h-3.6l6.7-58.6l23.9,45.4l24.7-45.4l10.1,58.5
		L598.3,324.4z"/>
	<linearGradient id="SVGID_12_" gradientUnits="userSpaceOnUse" x1="623.9694" y1="764.937" x2="627.9694" y2="64.937">
		<stop  offset="0.3137" style="stop-color:#8C5239"/>
		<stop  offset="1" style="stop-color:#C7BCB2"/>
	</linearGradient>
	<path class="st33" d="M630.7,324.4h-8v-58.6h8V324.4z"/>
	<linearGradient id="SVGID_13_" gradientUnits="userSpaceOnUse" x1="675.0868" y1="765.2291" x2="679.0868" y2="65.2291">
		<stop  offset="0.3137" style="stop-color:#8C5239"/>
		<stop  offset="1" style="stop-color:#C7BCB2"/>
	</linearGradient>
	<path class="st34" d="M700.9,324.4l-42.6-41.8v41.8h-3.6v-58.5l42.6,41.8v-41.8h3.6V324.4z"/>
	<linearGradient id="SVGID_14_" gradientUnits="userSpaceOnUse" x1="746.6953" y1="765.6382" x2="750.6953" y2="65.6383">
		<stop  offset="0.3137" style="stop-color:#8C5239"/>
		<stop  offset="1" style="stop-color:#C7BCB2"/>
	</linearGradient>
	<path class="st35" d="M775.4,313.3c-0.2,0.6-1.3,2.3-3.3,4.3c-3.5,3.5-10,7.8-20.6,7.8c-17.8,0-28.2-13.6-28.2-30.4
		s10.4-30.5,28.2-30.5c17,0,23.3,11.1,23.9,12.2l-1.9,2c-18.3-22.1-40.2-7.2-40.2,16.2c0,19.6,17.9,35,34.8,21.5v-20.2h7.2V313.3z"
		/>
	<linearGradient id="SVGID_15_" gradientUnits="userSpaceOnUse" x1="850.4765" y1="766.2313" x2="854.4765" y2="66.2313">
		<stop  offset="0.3137" style="stop-color:#8C5239"/>
		<stop  offset="1" style="stop-color:#C7BCB2"/>
	</linearGradient>
	<path class="st36" d="M872.5,309.2c0,6.1-4.5,16.2-18.3,16.2c-11,0-18-4.7-19.7-16.7h2.6c1.8,11,10.9,13.4,16.2,13.4
		c9.4,0,11.6-6.6,11.6-9.4c0-6.2-5-9.5-14.6-14.5c-6.1-3.1-16.4-8.2-16.4-18.2c0-12.7,12.6-15.3,17-15.3c11.2,0,15.8,5.9,17.4,14.3
		h-2.9c-1.2-4.4-4.4-11-14.5-11c-5,0-10.2,4-10.2,9c0,5.9,7.1,9.7,14.5,13.4C869.1,297.3,872.5,302.3,872.5,309.2z"/>
	<linearGradient id="SVGID_16_" gradientUnits="userSpaceOnUse" x1="919.637" y1="766.6265" x2="923.637" y2="66.6265">
		<stop  offset="0.3137" style="stop-color:#8C5239"/>
		<stop  offset="1" style="stop-color:#C7BCB2"/>
	</linearGradient>
	<path class="st37" d="M950.6,294.9c0,21.2-12.6,30.5-28.2,30.5c-15.6,0-28.2-9.3-28.2-30.5c0-20.5,12.6-30.4,28.2-30.4
		C937.9,264.5,950.6,274.3,950.6,294.9z M941,294.9c0-18.8-8.3-27.8-18.6-27.8c-10.2,0-18.6,9.1-18.6,27.8
		c0,19.4,8.4,27.8,18.6,27.8C932.7,322.7,941,314.3,941,294.9z"/>
	<linearGradient id="SVGID_17_" gradientUnits="userSpaceOnUse" x1="998.5143" y1="767.0772" x2="1002.5143" y2="67.0772">
		<stop  offset="0.3137" style="stop-color:#8C5239"/>
		<stop  offset="1" style="stop-color:#C7BCB2"/>
	</linearGradient>
	<path class="st38" d="M1029.5,294.9c0,21.2-12.6,30.5-28.2,30.5c-15.6,0-28.2-9.3-28.2-30.5c0-20.5,12.6-30.4,28.2-30.4
		C1016.8,264.5,1029.5,274.3,1029.5,294.9z M1019.9,294.9c0-18.8-8.3-27.8-18.6-27.8c-10.2,0-18.6,9.1-18.6,27.8
		c0,19.4,8.4,27.8,18.6,27.8C1011.5,322.7,1019.9,314.3,1019.9,294.9z"/>
	<linearGradient id="SVGID_18_" gradientUnits="userSpaceOnUse" x1="1073.0717" y1="767.5033" x2="1077.0717" y2="67.5033">
		<stop  offset="0.3137" style="stop-color:#8C5239"/>
		<stop  offset="1" style="stop-color:#C7BCB2"/>
	</linearGradient>
	<path class="st39" d="M1098.9,324.4l-42.6-41.8v41.8h-3.6v-58.5l42.6,41.8v-41.8h3.6V324.4z"/>
</g>
</svg>
