<?xml version="1.0" encoding="utf-8"?>
<!-- Generator: Adobe Illustrator 22.1.0, SVG Export Plug-In . SVG Version: 6.00 Build 0)  -->
<svg version="1.1" xmlns="http://www.w3.org/2000/svg" xmlns:xlink="http://www.w3.org/1999/xlink" x="0px" y="0px"
	 viewBox="0 0 1501 806" style="enable-background:new 0 0 1501 806;" xml:space="preserve">
<style type="text/css">
	.st0{opacity:0.73;fill:url(#XMLID_2_);}
	.st1{opacity:0.73;fill:url(#XMLID_3_);}
	.st2{opacity:0.73;fill:url(#XMLID_4_);}
	.st3{opacity:0.73;fill:url(#XMLID_5_);}
	.st4{opacity:0.73;fill:url(#XMLID_6_);}
	.st5{opacity:0.73;fill:url(#XMLID_7_);}
	.st6{opacity:0.73;fill:url(#XMLID_8_);}
	.st7{opacity:0.73;fill:url(#XMLID_9_);}
	.st8{opacity:0.73;fill:url(#XMLID_10_);}
	.st9{opacity:0.5;}
	.st10{fill:url(#SVGID_1_);}
	.st11{fill:url(#SVGID_2_);}
	.st12{fill:url(#SVGID_3_);}
	.st13{fill:url(#SVGID_4_);}
	.st14{opacity:0.38;}
	.st15{fill:url(#SVGID_5_);}
	.st16{fill:url(#SVGID_6_);}
	.st17{fill:url(#SVGID_7_);}
	.st18{fill:url(#SVGID_8_);}
	.st19{fill:url(#XMLID_11_);}
	.st20{fill:url(#XMLID_12_);}
	.st21{fill:url(#XMLID_13_);}
	.st22{fill:url(#XMLID_14_);}
	.st23{fill:url(#XMLID_15_);}
	.st24{fill:url(#XMLID_19_);}
	.st25{fill:url(#XMLID_20_);}
	.st26{fill:url(#XMLID_21_);}
	.st27{fill:url(#XMLID_22_);}
	.st28{fill:url(#XMLID_23_);}
	.st29{fill:url(#XMLID_24_);}
	.st30{fill:url(#XMLID_25_);}
	.st31{fill:url(#XMLID_29_);}
	.st32{fill:url(#XMLID_30_);}
	.st33{fill:url(#XMLID_31_);}
	.st34{fill:url(#XMLID_32_);}
	.st35{fill:url(#XMLID_33_);}
	.st36{fill:url(#XMLID_34_);}
	.st37{fill:url(#XMLID_35_);}
	.st38{opacity:0.73;}
	.st39{fill:url(#SVGID_9_);}
	.st40{fill:url(#SVGID_10_);}
	.st41{fill:url(#SVGID_11_);}
	.st42{fill:url(#SVGID_12_);}
	.st43{fill:url(#SVGID_13_);}
	.st44{fill:url(#SVGID_14_);}
	.st45{fill:url(#SVGID_15_);}
	.st46{fill:url(#SVGID_16_);}
	.st47{fill:url(#SVGID_17_);}
	.st48{fill:url(#SVGID_18_);}
	.st49{fill:url(#SVGID_19_);}
	.st50{fill:url(#SVGID_20_);}
	.st51{fill:url(#SVGID_21_);}
	.st52{fill:url(#SVGID_22_);}
	.st53{fill:url(#SVGID_23_);}
	.st54{fill:url(#SVGID_24_);}
	.st55{fill:url(#SVGID_25_);}
	.st56{fill:url(#SVGID_26_);}
	.st57{fill:url(#SVGID_27_);}
	.st58{fill:url(#SVGID_28_);}
	.st59{fill:url(#SVGID_29_);}
	.st60{fill:url(#SVGID_30_);}
	.st61{fill:url(#SVGID_31_);}
	.st62{fill:url(#SVGID_32_);}
</style>
<g id="Слой_1">
	<g id="Слой_7">
	</g>
	<g id="Слой_8">
	</g>
</g>
<g id="облака">
</g>
<g id="луна">
	<linearGradient id="XMLID_2_" gradientUnits="userSpaceOnUse" x1="735.5386" y1="712.2646" x2="735.5386" y2="-108.284">
		<stop  offset="0.3137" style="stop-color:#8C5239"/>
		<stop  offset="1" style="stop-color:#C7BCB2"/>
	</linearGradient>
	<polygon id="XMLID_27_" class="st0" points="726.6,368.8 744.4,368.9 744.4,369.7 726.6,369.6 	"/>
	<linearGradient id="XMLID_3_" gradientUnits="userSpaceOnUse" x1="735.5391" y1="712.2646" x2="735.5391" y2="-108.284">
		<stop  offset="0.3137" style="stop-color:#8C5239"/>
		<stop  offset="1" style="stop-color:#C7BCB2"/>
	</linearGradient>
	<polygon id="XMLID_28_" class="st1" points="726.6,372.1 744.4,372.3 744.4,373 726.6,372.9 	"/>
	<linearGradient id="XMLID_4_" gradientUnits="userSpaceOnUse" x1="735.5391" y1="712.2646" x2="735.5391" y2="-108.284">
		<stop  offset="0.3137" style="stop-color:#8C5239"/>
		<stop  offset="1" style="stop-color:#C7BCB2"/>
	</linearGradient>
	<polygon id="XMLID_26_" class="st2" points="726.6,375.5 744.4,375.5 744.4,376.3 726.6,376.3 	"/>
	<linearGradient id="XMLID_5_" gradientUnits="userSpaceOnUse" x1="485.8939" y1="712.2646" x2="485.8939" y2="-108.284">
		<stop  offset="0.3137" style="stop-color:#8C5239"/>
		<stop  offset="1" style="stop-color:#C7BCB2"/>
	</linearGradient>
	<polygon id="XMLID_18_" class="st3" points="459.9,371.6 511.9,371.5 511.9,372.3 459.9,372.4 	"/>
	<linearGradient id="XMLID_6_" gradientUnits="userSpaceOnUse" x1="502.8041" y1="712.2646" x2="502.8041" y2="-108.284">
		<stop  offset="0.3137" style="stop-color:#8C5239"/>
		<stop  offset="1" style="stop-color:#C7BCB2"/>
	</linearGradient>
	<polygon id="XMLID_17_" class="st4" points="493.9,368.2 511.7,368.2 511.7,369 493.9,369 	"/>
	<linearGradient id="XMLID_7_" gradientUnits="userSpaceOnUse" x1="502.8047" y1="712.2646" x2="502.8047" y2="-108.284">
		<stop  offset="0.3137" style="stop-color:#8C5239"/>
		<stop  offset="1" style="stop-color:#C7BCB2"/>
	</linearGradient>
	<polygon id="XMLID_16_" class="st5" points="493.9,374.9 511.7,374.8 511.7,375.6 493.9,375.7 	"/>
	<linearGradient id="XMLID_8_" gradientUnits="userSpaceOnUse" x1="1005.1005" y1="712.2646" x2="1005.1005" y2="-108.284">
		<stop  offset="0.3137" style="stop-color:#8C5239"/>
		<stop  offset="1" style="stop-color:#C7BCB2"/>
	</linearGradient>
	<polygon id="XMLID_247_" class="st6" points="979.1,372.2 979.1,371.4 1031.1,371.4 1031.1,372.2 	"/>
	<linearGradient id="XMLID_9_" gradientUnits="userSpaceOnUse" x1="987.9559" y1="712.2646" x2="987.9559" y2="-108.284">
		<stop  offset="0.3137" style="stop-color:#8C5239"/>
		<stop  offset="1" style="stop-color:#C7BCB2"/>
	</linearGradient>
	<polygon id="XMLID_246_" class="st7" points="979.1,369 979.1,368.3 996.9,368.3 996.8,369.1 	"/>
	<linearGradient id="XMLID_10_" gradientUnits="userSpaceOnUse" x1="987.9026" y1="712.2646" x2="987.9026" y2="-108.284">
		<stop  offset="0.3137" style="stop-color:#8C5239"/>
		<stop  offset="1" style="stop-color:#C7BCB2"/>
	</linearGradient>
	<polygon id="XMLID_245_" class="st8" points="979,375.6 979,374.8 996.8,374.8 996.8,375.6 	"/>
</g>
<g id="Надписи">
	<g class="st9">
		<linearGradient id="SVGID_1_" gradientUnits="userSpaceOnUse" x1="750.1047" y1="97.7994" x2="750.1047" y2="97.7994">
			<stop  offset="0" style="stop-color:#995239"/>
			<stop  offset="0.3711" style="stop-color:#8C5239"/>
			<stop  offset="1" style="stop-color:#C7BCB2"/>
		</linearGradient>
		<line class="st10" x1="299.4" y1="97.8" x2="1200.9" y2="97.8"/>
		<linearGradient id="SVGID_2_" gradientUnits="userSpaceOnUse" x1="750.1047" y1="692" x2="750.1047" y2="69.8425">
			<stop  offset="0" style="stop-color:#995239"/>
			<stop  offset="0.3711" style="stop-color:#8C5239"/>
			<stop  offset="1" style="stop-color:#C7BCB2"/>
		</linearGradient>
		<rect x="299.4" y="96.8" class="st11" width="901.5" height="2"/>
	</g>
	<g class="st9">
		<linearGradient id="SVGID_3_" gradientUnits="userSpaceOnUse" x1="750.1047" y1="483.9771" x2="750.1047" y2="483.9771">
			<stop  offset="0" style="stop-color:#995239"/>
			<stop  offset="0.3711" style="stop-color:#8C5239"/>
			<stop  offset="1" style="stop-color:#C7BCB2"/>
		</linearGradient>
		<line class="st12" x1="299.4" y1="484" x2="1200.9" y2="484"/>
		<linearGradient id="SVGID_4_" gradientUnits="userSpaceOnUse" x1="750.1047" y1="753.6583" x2="750.1047" y2="131.5007">
			<stop  offset="0" style="stop-color:#995239"/>
			<stop  offset="0.3711" style="stop-color:#8C5239"/>
			<stop  offset="1" style="stop-color:#C7BCB2"/>
		</linearGradient>
		<rect x="299.4" y="483" class="st13" width="901.5" height="2"/>
	</g>
	<g class="st14">
		<linearGradient id="SVGID_5_" gradientUnits="userSpaceOnUse" x1="793.1667" y1="753.6583" x2="793.1667" y2="131.5007">
			<stop  offset="0" style="stop-color:#995239"/>
			<stop  offset="0.3711" style="stop-color:#8C5239"/>
			<stop  offset="1" style="stop-color:#C7BCB2"/>
		</linearGradient>
		<line class="st15" x1="755.8" y1="630.7" x2="830.5" y2="484"/>
		<linearGradient id="SVGID_6_" gradientUnits="userSpaceOnUse" x1="793.1665" y1="753.6583" x2="793.1665" y2="131.5007">
			<stop  offset="0" style="stop-color:#995239"/>
			<stop  offset="0.3711" style="stop-color:#8C5239"/>
			<stop  offset="1" style="stop-color:#C7BCB2"/>
		</linearGradient>
		<polygon class="st16" points="756.7,631.2 754.9,630.3 829.6,483.5 831.4,484.4 		"/>
	</g>
	<g class="st14">
		<linearGradient id="SVGID_7_" gradientUnits="userSpaceOnUse" x1="711.8707" y1="753.6583" x2="711.8707" y2="131.5007">
			<stop  offset="0" style="stop-color:#995239"/>
			<stop  offset="0.3711" style="stop-color:#8C5239"/>
			<stop  offset="1" style="stop-color:#C7BCB2"/>
		</linearGradient>
		<line class="st17" x1="749.2" y1="630.8" x2="674.5" y2="484"/>
		<linearGradient id="SVGID_8_" gradientUnits="userSpaceOnUse" x1="711.8708" y1="753.6583" x2="711.8708" y2="131.5007">
			<stop  offset="0" style="stop-color:#995239"/>
			<stop  offset="0.3711" style="stop-color:#8C5239"/>
			<stop  offset="1" style="stop-color:#C7BCB2"/>
		</linearGradient>
		<polygon class="st18" points="748.3,631.3 673.6,484.4 675.4,483.5 750.1,630.3 		"/>
	</g>
	<g id="XMLID_70_" class="st14">
		<g id="XMLID_73_">
			<g id="XMLID_94_">
				<g id="XMLID_95_">
					<linearGradient id="XMLID_11_" gradientUnits="userSpaceOnUse" x1="742.9443" y1="753.6583" x2="742.9443" y2="131.5007">
						<stop  offset="0" style="stop-color:#995239"/>
						<stop  offset="0.3711" style="stop-color:#8C5239"/>
						<stop  offset="1" style="stop-color:#C7BCB2"/>
					</linearGradient>
					<path id="XMLID_126_" class="st19" d="M735.3,658.5l-0.1-0.3l0-4.6c-0.1-0.3,0.1-0.4,0.4-0.5c0.3-0.1,0.5-0.3,0.5-0.3l4.6,0
						l0.1-2.4l-4.6,0c-0.3,0.1-0.4-0.1-0.5-0.4c-0.1-0.3-0.3-0.5-0.3-0.5l0.2-5.4c0.1-0.4,0.3-0.8,0.9-0.8c0.4,0.1,0.8,0.3,0.8,0.9
						l-0.1,4.4l4.6,0c0.3-0.1,0.4,0.1,0.5,0.4c0.1,0.3,0.3,0.5,0.3,0.5l-0.2,4.1c0.1,0.3-0.1,0.4-0.4,0.5s-0.5,0.3-0.5,0.3l-4.6,0
						l-0.1,3l9.4,0.2l0-4c0.1-0.4,0.3-0.8,0.9-0.8l3,0.1c0.4,0.1,0.8,0.3,0.8,0.9c-0.1,0.4-0.3,0.8-0.9,0.8l-2,0l0,4
						c-0.1,0.4-0.3,0.8-0.9,0.8l-10.9,0C735.8,658.9,735.8,658.9,735.3,658.5C735.4,658.8,735.3,658.5,735.3,658.5z"/>
					<linearGradient id="XMLID_12_" gradientUnits="userSpaceOnUse" x1="743.2977" y1="753.6583" x2="743.2977" y2="131.5007">
						<stop  offset="0" style="stop-color:#995239"/>
						<stop  offset="0.3711" style="stop-color:#8C5239"/>
						<stop  offset="1" style="stop-color:#C7BCB2"/>
					</linearGradient>
					<path id="XMLID_125_" class="st20" d="M735.7,644.4l-0.1-0.3c0.1-0.4,0.3-0.8,0.9-0.8l4.6,0l0.1-2.4l-4.7-0.2
						c-0.3,0.1-0.4-0.1-0.5-0.4c-0.1-0.3-0.3-0.5-0.3-0.5l0-4.6c-0.1-0.3,0.1-0.4,0.4-0.5c0.3-0.1,0.5-0.3,0.5-0.3l10.9,0
						c0.3-0.1,0.4,0.1,0.5,0.4c0.1,0.3,0.1,0.3,0.3,0.5l0,4l2,0c0.4,0.1,0.8,0.3,0.8,0.9c-0.1,0.4-0.3,0.8-0.9,0.8l-2.9,0.2
						c-0.4-0.1-0.8-0.3-0.8-0.9l0-4l-9.4-0.2l-0.1,3l4.6,0c0.4,0.1,0.8,0.3,0.8,0.9l-0.2,4.1c-0.1,0.4-0.3,0.8-0.9,0.8l-5.3,0.1
						C735.9,644.9,735.8,644.7,735.7,644.4z"/>
					<linearGradient id="XMLID_13_" gradientUnits="userSpaceOnUse" x1="752.791" y1="753.6583" x2="752.791" y2="131.5007">
						<stop  offset="0" style="stop-color:#995239"/>
						<stop  offset="0.3711" style="stop-color:#8C5239"/>
						<stop  offset="1" style="stop-color:#C7BCB2"/>
					</linearGradient>
					<path id="XMLID_124_" class="st21" d="M748,661.9l-0.1-0.3l0.1-3c0.1-0.4,0.3-0.8,0.9-0.8l8,0.2c0.3-0.1,0.4,0.1,0.5,0.4
						c0.1,0.3,0.3,0.5,0.3,0.5l-0.1,3c-0.1,0.4-0.3,0.8-0.9,0.8l-8-0.2C748.5,662.3,748.3,662.5,748,661.9
						C748.1,662.2,748,661.9,748,661.9z M749.7,659.4l0,1.3l6.3,0.1l0-1.3L749.7,659.4z"/>
					<linearGradient id="XMLID_14_" gradientUnits="userSpaceOnUse" x1="753.1578" y1="753.6583" x2="753.1578" y2="131.5007">
						<stop  offset="0" style="stop-color:#995239"/>
						<stop  offset="0.3711" style="stop-color:#8C5239"/>
						<stop  offset="1" style="stop-color:#C7BCB2"/>
					</linearGradient>
					<path id="XMLID_123_" class="st22" d="M748.4,634.9l-0.1-0.3l0.1-3c0.1-0.4,0.3-0.8,0.9-0.8l8,0.2c0.4,0.1,0.8,0.3,0.8,0.9
						l-0.1,3c0.1,0.3-0.1,0.4-0.4,0.5s-0.5,0.3-0.5,0.3l-8-0.2C748.6,635.4,748.5,635.2,748.4,634.9L748.4,634.9z M749.8,632.5
						l0,1.3l6.3,0.1l0-1.3L749.8,632.5z"/>
					<linearGradient id="XMLID_15_" gradientUnits="userSpaceOnUse" x1="753.6568" y1="753.6583" x2="753.6568" y2="131.5007">
						<stop  offset="0" style="stop-color:#995239"/>
						<stop  offset="0.3711" style="stop-color:#8C5239"/>
						<stop  offset="1" style="stop-color:#C7BCB2"/>
					</linearGradient>
					<path id="XMLID_122_" class="st23" d="M748.9,571.3l-0.1-0.3l0.1-3c-0.1-0.3,0.1-0.4,0.4-0.5c0.3-0.1,0.5-0.3,0.5-0.3l8,0.2
						c0.3-0.1,0.4,0.1,0.5,0.4c0.1,0.3,0.3,0.5,0.3,0.5l-0.1,3c-0.1,0.4-0.3,0.8-0.9,0.8l-8-0.2C749.4,571.7,749,571.6,748.9,571.3z
						 M750.5,568.8l0,1.3l6.3,0.1l0-1.3L750.5,568.8z"/>
					<linearGradient id="XMLID_19_" gradientUnits="userSpaceOnUse" x1="750.6671" y1="753.6583" x2="750.6671" y2="131.5007">
						<stop  offset="0" style="stop-color:#995239"/>
						<stop  offset="0.3711" style="stop-color:#8C5239"/>
						<stop  offset="1" style="stop-color:#C7BCB2"/>
					</linearGradient>
					<path id="XMLID_121_" class="st24" d="M749.8,659l-0.1-0.3l0.3-24c0.1-0.4,0.3-0.8,0.9-0.8c0.4,0.1,0.8,0.3,0.8,0.9l-0.3,24
						c-0.1,0.4-0.3,0.8-0.9,0.8C750.1,659.5,749.9,659.3,749.8,659z"/>
					<linearGradient id="XMLID_20_" gradientUnits="userSpaceOnUse" x1="754.8209" y1="753.6583" x2="754.8209" y2="131.5007">
						<stop  offset="0" style="stop-color:#995239"/>
						<stop  offset="0.3711" style="stop-color:#8C5239"/>
						<stop  offset="1" style="stop-color:#C7BCB2"/>
					</linearGradient>
					<path id="XMLID_120_" class="st25" d="M754,658.8l-0.1-0.3L754,635c0.1-0.4,0.3-0.8,0.9-0.8c0.4,0.1,0.8,0.3,0.8,0.9l-0.1,23.6
						c-0.1,0.4-0.3,0.8-0.9,0.8C754.6,659.2,754.2,659.1,754,658.8z"/>
					<linearGradient id="XMLID_21_" gradientUnits="userSpaceOnUse" x1="750.8414" y1="753.6583" x2="750.8414" y2="131.5007">
						<stop  offset="0" style="stop-color:#995239"/>
						<stop  offset="0.3711" style="stop-color:#8C5239"/>
						<stop  offset="1" style="stop-color:#C7BCB2"/>
					</linearGradient>
					<path id="XMLID_119_" class="st26" d="M749.9,632.1l-0.1-0.3l0.4-59.9c0.1-0.4,0.3-0.8,0.9-0.8c0.4,0.1,0.8,0.3,0.8,0.9
						l-0.4,59.9c-0.1,0.4-0.3,0.8-0.9,0.8C750.4,632.5,750,632.4,749.9,632.1z"/>
					<linearGradient id="XMLID_22_" gradientUnits="userSpaceOnUse" x1="755.3176" y1="753.6583" x2="755.3176" y2="131.5007">
						<stop  offset="0" style="stop-color:#995239"/>
						<stop  offset="0.3711" style="stop-color:#8C5239"/>
						<stop  offset="1" style="stop-color:#C7BCB2"/>
					</linearGradient>
					<path id="XMLID_118_" class="st27" d="M754.4,631.1l-0.1-0.3l0.4-59.2c0.1-0.4,0.3-0.8,0.9-0.8c0.4,0.1,0.8,0.3,0.8,0.9
						l-0.5,58.9c-0.1,0.4-0.3,0.8-0.9,0.8C754.7,631.7,754.5,631.4,754.4,631.1z"/>
					<linearGradient id="XMLID_23_" gradientUnits="userSpaceOnUse" x1="748.6895" y1="753.6583" x2="748.6895" y2="131.5007">
						<stop  offset="0" style="stop-color:#995239"/>
						<stop  offset="0.3711" style="stop-color:#8C5239"/>
						<stop  offset="1" style="stop-color:#C7BCB2"/>
					</linearGradient>
					<path id="XMLID_115_" class="st28" d="M746.3,648.9l-0.1-0.3l0.1-3.7c0.1-0.4,0.3-0.8,0.9-0.8l3.3,0c0.4,0.1,0.8,0.3,0.8,0.9
						c-0.1,0.4-0.3,0.8-0.9,0.8l-2.6,0l0,2l2.6,0c0.4,0.1,0.8,0.3,0.8,0.9c-0.1,0.4-0.3,0.8-0.9,0.8l-3.3,0
						C746.8,649.3,746.7,649,746.3,648.9C746.5,648.8,746.3,648.9,746.3,648.9z"/>
					<linearGradient id="XMLID_24_" gradientUnits="userSpaceOnUse" x1="752.5573" y1="753.6583" x2="752.5573" y2="131.5007">
						<stop  offset="0" style="stop-color:#995239"/>
						<stop  offset="0.3711" style="stop-color:#8C5239"/>
						<stop  offset="1" style="stop-color:#C7BCB2"/>
					</linearGradient>
					<path id="XMLID_114_" class="st29" d="M749.7,664.7l-0.1-0.3l0-2.6c0.1-0.4,0.3-0.8,0.9-0.8c0.4,0.1,0.8,0.3,0.8,0.9l0,2l2.6,0
						l-0.2-2.2c0.1-0.4,0.3-0.8,0.9-0.8c0.4,0.1,0.8,0.3,0.8,0.9l0,2.6c-0.1,0.4-0.3,0.8-0.9,0.8l-4.4-0.1
						C750,665.2,749.9,664.9,749.7,664.7z"/>
					<linearGradient id="XMLID_25_" gradientUnits="userSpaceOnUse" x1="755.6483" y1="753.6583" x2="755.6483" y2="131.5007">
						<stop  offset="0" style="stop-color:#995239"/>
						<stop  offset="0.3711" style="stop-color:#8C5239"/>
						<stop  offset="1" style="stop-color:#C7BCB2"/>
					</linearGradient>
					<path id="XMLID_113_" class="st30" d="M754.9,568.2l-0.1-0.3l0.1-6.3c0.1-0.4,0.3-0.8,0.9-0.8c0.4,0.1,0.8,0.3,0.8,0.9
						l-0.1,6.3c-0.1,0.4-0.3,0.8-0.9,0.8C755.2,568.8,755,568.5,754.9,568.2z"/>
					<linearGradient id="XMLID_29_" gradientUnits="userSpaceOnUse" x1="751.4308" y1="753.6583" x2="751.4308" y2="131.5007">
						<stop  offset="0" style="stop-color:#995239"/>
						<stop  offset="0.3711" style="stop-color:#8C5239"/>
						<stop  offset="1" style="stop-color:#C7BCB2"/>
					</linearGradient>
					<path id="XMLID_112_" class="st31" d="M750.7,568.4l-0.1-0.3l0.1-6.3c0.1-0.4,0.3-0.8,0.9-0.8c0.4,0.1,0.8,0.3,0.8,0.9
						l-0.1,6.3c-0.1,0.4-0.3,0.8-0.9,0.8C750.9,568.9,750.8,568.7,750.7,568.4z"/>
					<linearGradient id="XMLID_30_" gradientUnits="userSpaceOnUse" x1="753.6348" y1="753.6583" x2="753.6348" y2="131.5007">
						<stop  offset="0" style="stop-color:#995239"/>
						<stop  offset="0.3711" style="stop-color:#8C5239"/>
						<stop  offset="1" style="stop-color:#C7BCB2"/>
					</linearGradient>
					<path id="XMLID_111_" class="st32" d="M727.4,545.6c-1.5-2.9-2-5.9-2.1-9.2c0-9,6.5-16.9,14.8-18.2c0.2-6.7,6.5-11.9,13.7-12
						c3.7,0.1,7,1.4,9.5,3.7c2.5,2.3,3.8,5.4,4,8.5c8.5,1.6,14.9,9.6,14.6,18.7c-0.1,5-2,9.6-5.4,13.4c-3.5,3.5-7.9,5.4-12.7,5.5
						l0,0c-4,0-7.4-1.5-10.6-3.8c-3.1,2.3-6.8,3.5-10.5,3.4c-4.7-0.2-9.4-2.1-12.6-5.8C729.1,548.3,728,546.9,727.4,545.6z
						 M764.7,513.8c-0.5-1-1.3-2-2.3-3.1c-2.4-2.1-5.3-3.2-8.3-3.3c-6.6,0.1-12.1,4.9-12,10.8c-0.1,0.4-0.3,0.8-0.8,1.1
						c-8,1.1-14,8.2-14.2,16.9c0,4.6,1.5,8.8,4.6,12.2c3.1,3.4,6.9,5.1,11.3,5.2c3.7,0.1,7-1.3,10.1-3.5c0.3-0.1,0.8-0.4,1.1,0.1
						c2.9,2.5,6.2,3.8,9.9,3.8l0,0c4.4,0.1,8.4-1.7,11.4-4.9c3-3.2,4.8-7.4,4.7-12.1c0.2-8.7-5.8-15.9-13.8-17.1
						c-0.4-0.1-0.8-0.3-0.8-0.9l0,0C765.7,517,765.5,515.4,764.7,513.8z"/>
					<linearGradient id="XMLID_31_" gradientUnits="userSpaceOnUse" x1="740.132" y1="753.6583" x2="740.132" y2="131.5007">
						<stop  offset="0" style="stop-color:#995239"/>
						<stop  offset="0.3711" style="stop-color:#8C5239"/>
						<stop  offset="1" style="stop-color:#C7BCB2"/>
					</linearGradient>
					<path id="XMLID_110_" class="st33" d="M731,543c-1.1-2.1-1.6-4.5-1.7-7.1c0-8.3,6.7-14.7,14.6-14.8c2.4,0.1,4.6,0.6,6.5,1.6
						c0.4,0.1,0.5,0.4,0.4,0.8c0.1,0.3,0,0.7-0.3,0.8c-3.7,2.5-6,7.1-6.1,12.1l0,0c0,4.6,1.9,8.9,5.4,11.8c0.1,0.3,0.3,0.5,0.4,0.8
						c-0.1,0.4-0.1,0.4-0.4,0.5c-1.8,0.9-3.9,1.4-6.2,1.5C738.1,551,733.4,547.8,731,543z M748.3,523.9c-1.3-0.6-3.2-1-4.5-1
						c-7-0.1-12.6,5.8-12.8,13.2c0.1,7.3,5.6,13.4,12.5,13.4c1.3,0,2.9-0.2,4.2-0.8c-3.2-3-4.8-7.5-4.9-12.1l0,0
						C743,531.6,745,526.9,748.3,523.9z"/>
					<linearGradient id="XMLID_32_" gradientUnits="userSpaceOnUse" x1="766.8118" y1="753.6583" x2="766.8118" y2="131.5007">
						<stop  offset="0" style="stop-color:#995239"/>
						<stop  offset="0.3711" style="stop-color:#8C5239"/>
						<stop  offset="1" style="stop-color:#C7BCB2"/>
					</linearGradient>
					<path id="XMLID_109_" class="st34" d="M756.8,549.4l-0.1-0.3c-0.1-0.3,0-0.7,0.3-0.8c3.3-2.7,5.3-7,5.5-11.8
						c0.1-5-2.2-9.5-5.8-11.9c-0.1-0.3-0.3-0.5-0.4-0.8c0.1-0.4,0.1-0.4,0.4-0.5c2.1-1.1,4.5-1.6,6.4-1.7
						c7.9-0.1,14.4,6.8,14.3,14.9c0,4-1.6,7.8-4.2,10.5c-2.9,2.8-6.4,4.3-10.1,4.2c-2,0-4.2-0.5-6.1-1.5L756.8,549.4z M762.4,528.6
						c1.2,2.4,2,5.3,1.8,8l0,0c0,4.6-2,9-5,12.2c1.3,0.6,2.8,0.9,4.1,0.9c3.3,0,6.6-1.4,9.1-3.7c2.3-2.5,3.6-5.8,3.9-9.3
						c-0.1-7.3-5.6-13.4-12.5-13.4c-1.7-0.1-3.2,0.3-4.6,0.7C760.4,525.3,761.4,526.8,762.4,528.6z"/>
					<linearGradient id="XMLID_33_" gradientUnits="userSpaceOnUse" x1="753.9344" y1="753.6583" x2="753.9344" y2="131.5007">
						<stop  offset="0" style="stop-color:#995239"/>
						<stop  offset="0.3711" style="stop-color:#8C5239"/>
						<stop  offset="1" style="stop-color:#C7BCB2"/>
					</linearGradient>
					<path id="XMLID_108_" class="st35" d="M744.7,518.8c-0.1-0.3-0.1-0.3,0-0.7c0.7-4.4,4.7-7.7,9.3-7.7c4.4,0.1,8.3,3.3,9.2,7.5
						c0.1,0.3,0,0.7-0.3,0.8s-0.5,0.3-0.8,0.4c-0.4-0.1-1.1-0.1-1.5-0.2c-2,0-4.2,0.8-5.8,2.3c-0.3,0.1-0.5,0.3-0.5,0.3
						c-0.3,0.1-0.4-0.1-0.5-0.4c-1.5-1.6-3.6-2.5-5.6-2.4c-0.7,0-1.6,0.1-2.2,0.2c-0.3,0.1-0.7,0-0.8-0.3
						C744.7,518.8,744.7,518.8,744.7,518.8z M760.7,516.2c-1.2-2.4-3.9-4.3-6.8-4.1c-3.3,0-6.3,1.9-7.3,5.1c0.4,0.1,0.9-0.1,1.3,0
						l0,0c2.4,0.1,4.5,1,6.2,2.4c1.8-1.6,4.1-2.4,6.4-2.3c0.3-0.1,0.4,0.1,0.4,0.1C760.9,516.7,760.8,516.5,760.7,516.2z"/>
					<linearGradient id="XMLID_34_" gradientUnits="userSpaceOnUse" x1="753.7657" y1="753.6583" x2="753.7657" y2="131.5007">
						<stop  offset="0" style="stop-color:#995239"/>
						<stop  offset="0.3711" style="stop-color:#8C5239"/>
						<stop  offset="1" style="stop-color:#C7BCB2"/>
					</linearGradient>
					<path id="XMLID_97_" class="st36" d="M747.7,558.7c-0.5-1-0.7-2-0.7-3.3c0-0.7,0.2-1.5,0.5-2.2c0.1-0.4,0.4-0.5,0.7-0.7
						c2.9-0.8,4.8-2.8,4.8-2.8c0.3-0.1,0.5-0.3,0.5-0.3s0.4,0.1,0.5,0.4c1.6,1.8,4,2.6,5.4,2.8c0.4,0.1,0.5,0.4,0.7,0.7
						c0.4,0.8,0.4,1.4,0.4,2.1c-0.1,3.7-3.1,6.9-6.8,6.8C751.3,562.5,748.9,561.1,747.7,558.7z M748.8,554.5
						c-0.1,0.4-0.3,0.8-0.1,1.1c0,2.6,2.3,5.1,4.9,5.1c2.6,0,5.1-2.3,5.1-4.9l0,0c0.1-0.4-0.1-0.9-0.3-1.2c-1.5-0.2-3.6-1.1-5-2.7
						C752.7,552.4,751,553.6,748.8,554.5z"/>
					<linearGradient id="XMLID_35_" gradientUnits="userSpaceOnUse" x1="753.7567" y1="753.6583" x2="753.7567" y2="131.5007">
						<stop  offset="0" style="stop-color:#995239"/>
						<stop  offset="0.3711" style="stop-color:#8C5239"/>
						<stop  offset="1" style="stop-color:#C7BCB2"/>
					</linearGradient>
					<path id="XMLID_96_" class="st37" d="M750.3,543.8c-5.3-10.2,2.8-19,3.1-19.2s0.5-0.3,0.5-0.3c0.3-0.1,0.4,0.1,0.5,0.4
						c10.4,12.5-0.1,22.9-0.4,23.1c-0.3,0.1-0.5,0.3-0.5,0.3c-0.3,0.1-0.4-0.1-0.5-0.4C751.8,546.6,751,545.1,750.3,543.8z
						 M753.8,526.7c-2.1,2.4-7.1,10.6-0.3,19.4C755.6,543.7,760.9,536,753.8,526.7z"/>
				</g>
			</g>
		</g>
	</g>
	<g class="st38">
		<linearGradient id="SVGID_9_" gradientUnits="userSpaceOnUse" x1="536.0706" y1="741.6631" x2="536.0706" y2="11.6603">
			<stop  offset="0.3137" style="stop-color:#8C5239"/>
			<stop  offset="1" style="stop-color:#C7BCB2"/>
		</linearGradient>
		<path class="st39" d="M562.1,267.4c-0.7,1.4-7.2,12.2-23.8,12.2c-17.8,0-28.2-13.6-28.2-30.5c0-16.8,10.4-30.5,28.2-30.5
			c16.9,0,23.3,11.1,23.9,12.2l-1.9,2c-18.3-22-40.2-7.4-40.2,16.2c0,21.8,21.8,38.3,40,16.4L562.1,267.4z"/>
		<linearGradient id="SVGID_10_" gradientUnits="userSpaceOnUse" x1="612.7901" y1="741.6631" x2="612.7901" y2="11.6603">
			<stop  offset="0.3137" style="stop-color:#8C5239"/>
			<stop  offset="1" style="stop-color:#C7BCB2"/>
		</linearGradient>
		<path class="st40" d="M641,248.7c0,21.2-12.6,30.5-28.2,30.5c-15.6,0-28.2-9.3-28.2-30.5c0-20.5,12.6-30.4,28.2-30.4
			C628.4,218.3,641,228.1,641,248.7z M631.4,248.7c0-18.8-8.3-27.8-18.6-27.8c-10.2,0-18.6,9.1-18.6,27.8c0,19.4,8.4,27.8,18.6,27.8
			C623.1,276.5,631.4,268.1,631.4,248.7z"/>
		<linearGradient id="SVGID_11_" gradientUnits="userSpaceOnUse" x1="687.3494" y1="741.6631" x2="687.3494" y2="11.6603">
			<stop  offset="0.3137" style="stop-color:#8C5239"/>
			<stop  offset="1" style="stop-color:#C7BCB2"/>
		</linearGradient>
		<path class="st41" d="M710.5,278.2l-42.6-41.8v41.8h-3.6v-58.5l42.6,41.8v-41.8h3.6V278.2z"/>
		<linearGradient id="SVGID_12_" gradientUnits="userSpaceOnUse" x1="756.6678" y1="741.6631" x2="756.6678" y2="11.6603">
			<stop  offset="0.3137" style="stop-color:#8C5239"/>
			<stop  offset="1" style="stop-color:#C7BCB2"/>
		</linearGradient>
		<path class="st42" d="M780.5,223.2h-19.4v55h-8.8v-55h-19.4v-3.6h47.6V223.2z"/>
		<linearGradient id="SVGID_13_" gradientUnits="userSpaceOnUse" x1="818.2269" y1="741.6631" x2="818.2269" y2="11.6603">
			<stop  offset="0.3137" style="stop-color:#8C5239"/>
			<stop  offset="1" style="stop-color:#C7BCB2"/>
		</linearGradient>
		<path class="st43" d="M791.7,278.2l26.2-58.6l26.9,58.6h-9.7l-5-11h-29.5l-5,11H791.7z M801.9,264.1h26.7l-13.5-29.4L801.9,264.1z
			"/>
		<linearGradient id="SVGID_14_" gradientUnits="userSpaceOnUse" x1="886.868" y1="741.6631" x2="886.868" y2="11.6603">
			<stop  offset="0.3137" style="stop-color:#8C5239"/>
			<stop  offset="1" style="stop-color:#C7BCB2"/>
		</linearGradient>
		<path class="st44" d="M912.9,267.4c-0.7,1.4-7.2,12.2-23.8,12.2c-17.8,0-28.2-13.6-28.2-30.5c0-16.8,10.4-30.5,28.2-30.5
			c16.9,0,23.3,11.1,23.9,12.2l-1.9,2c-18.3-22-40.2-7.4-40.2,16.2c0,21.8,21.8,38.3,40,16.4L912.9,267.4z"/>
		<linearGradient id="SVGID_15_" gradientUnits="userSpaceOnUse" x1="954.3475" y1="741.6631" x2="954.3475" y2="11.6603">
			<stop  offset="0.3137" style="stop-color:#8C5239"/>
			<stop  offset="1" style="stop-color:#C7BCB2"/>
		</linearGradient>
		<path class="st45" d="M978.1,223.2h-19.4v55H950v-55h-19.4v-3.6h47.6V223.2z"/>
	</g>
	<g class="st38">
		<linearGradient id="SVGID_16_" gradientUnits="userSpaceOnUse" x1="533.801" y1="737.1275" x2="533.801" y2="19.6542">
			<stop  offset="0.3137" style="stop-color:#8C5239"/>
			<stop  offset="1" style="stop-color:#C7BCB2"/>
		</linearGradient>
		<path class="st46" d="M538.3,357.8c3,0,5.1,0,6.4-0.1c-0.6,1.6-1,2.9-1.3,4.1c-0.2,0.8-0.4,1.7-0.6,2.6H542
			c0.2-1.4,0.4-2.5,0.4-3.2c0-0.7-0.1-1.2-0.3-1.6c-0.2-0.4-0.6-0.7-1.1-0.9c-0.5-0.2-1.3-0.3-2.2-0.3h-1.7c-0.8,0-1.3,0.1-1.7,0.2
			c-0.4,0.1-0.7,0.4-0.9,0.7c-0.2,0.4-0.5,0.9-0.7,1.7l-2.1,7.9h2.3c1.1,0,1.9-0.3,2.4-1c0.5-0.7,0.9-1.3,1.2-2
			c0.3-0.7,0.4-1.1,0.5-1.3h0.7c-0.4,1.3-0.7,2.3-0.9,3.1c-0.2,0.8-0.3,1.2-0.4,1.4c-0.4,1.9-0.8,3.4-1,4.5h-0.7
			c0-0.2,0.1-0.5,0.2-1c0.1-0.5,0.1-0.9,0.1-1.2c0-0.6-0.2-1.1-0.5-1.5c-0.3-0.3-0.9-0.5-1.7-0.5h-2.3l-2,7.4
			c-0.2,0.6-0.3,1.1-0.3,1.4c0,0.4,0.1,0.6,0.3,0.8c0.2,0.2,0.5,0.3,0.8,0.4c0.4,0.1,0.9,0.1,1.6,0.1l-0.2,0.6
			c-1.1-0.1-2.7-0.1-4.7-0.1c-1.8,0-3.2,0-4.1,0.1l0.2-0.6c0.8,0,1.3-0.1,1.7-0.3c0.4-0.1,0.7-0.4,0.9-0.8c0.2-0.4,0.5-0.9,0.7-1.8
			l4.3-15.9c0.2-0.7,0.3-1.2,0.3-1.6c0-0.3-0.1-0.5-0.2-0.7c-0.1-0.2-0.4-0.3-0.7-0.3c-0.3-0.1-0.7-0.1-1.3-0.1l0.2-0.6
			C531.1,357.8,534.2,357.8,538.3,357.8z"/>
		<linearGradient id="SVGID_17_" gradientUnits="userSpaceOnUse" x1="554.9978" y1="737.1275" x2="554.9978" y2="19.6542">
			<stop  offset="0.3137" style="stop-color:#8C5239"/>
			<stop  offset="1" style="stop-color:#C7BCB2"/>
		</linearGradient>
		<path class="st47" d="M562.4,375.2l-0.8,2.3c-0.4,1.2-1,2-1.6,2.6s-1.3,0.8-2,0.8c-0.4,0-0.7-0.1-1.1-0.2
			c-0.3-0.2-0.5-0.4-0.7-0.6c-0.2-0.3-0.3-0.7-0.3-1.1c0-0.3,0-0.6,0.1-1c0.1-0.3,0.2-0.7,0.2-1c0.1-0.3,0.1-0.5,0.2-0.6l0.6-2.3
			c-1,2.4-2.1,4.1-3.1,5.2c-1.1,1.1-2.2,1.6-3.3,1.6c-1,0-1.7-0.4-2.2-1.1s-0.8-1.6-0.8-2.8c0-1.7,0.5-3.7,1.4-5.8
			c0.9-2.1,2.1-3.9,3.6-5.4c1.5-1.5,3-2.2,4.5-2.2c0.6,0,1,0.2,1.4,0.6c0.4,0.4,0.6,1,0.6,1.8l0.5-2c1.2,0,2.2-0.2,3-0.4l-4,14.1
			c-0.2,0.6-0.2,1-0.2,1.2c0,0.5,0.2,0.8,0.7,0.8c0.9,0,1.8-1.1,2.5-3.3l0.4-1.2H562.4z M558.6,366.9c0-0.9-0.2-1.5-0.5-2
			c-0.3-0.5-0.7-0.8-1.3-0.8c-0.9,0-1.9,0.7-2.9,2.1c-1,1.4-1.9,3.2-2.6,5.2c-0.7,2.1-1,4-1,5.9c0,0.9,0.1,1.5,0.3,1.9
			c0.2,0.4,0.5,0.6,0.8,0.6c0.6,0,1.3-0.5,2.1-1.4c0.8-0.9,1.6-2.1,2.4-3.6c0.8-1.5,1.5-3.1,2-4.9l0.6-2.3
			C558.6,367.3,558.6,367,558.6,366.9z"/>
		<linearGradient id="SVGID_18_" gradientUnits="userSpaceOnUse" x1="577.5149" y1="737.1275" x2="577.5149" y2="19.6542">
			<stop  offset="0.3137" style="stop-color:#8C5239"/>
			<stop  offset="1" style="stop-color:#C7BCB2"/>
		</linearGradient>
		<path class="st48" d="M580,378.6c-0.7,0.7-1.4,1.2-2.2,1.6s-1.7,0.6-2.5,0.6c-1.3,0-2.3-0.4-3.1-1.2s-1.1-2-1.1-3.5
			c0-1.7,0.4-3.6,1.2-5.6c0.8-2,2-3.7,3.4-5s3.1-2,5-2c0.6,0,1.2,0.1,1.7,0.3c0.5,0.2,0.9,0.5,1.3,0.9c0.3,0.4,0.5,0.9,0.5,1.4
			c0,0.4-0.1,0.8-0.3,1.2c-0.2,0.4-0.5,0.7-0.8,1c-0.3,0.3-0.7,0.4-1.2,0.4c-0.4,0-0.8-0.1-1-0.4c-0.2-0.2-0.3-0.5-0.3-0.9
			c0-0.6,0.2-1.1,0.7-1.6c0.5-0.4,1-0.7,1.7-0.8c-0.5-0.7-1.2-1-2.2-1c-1.1,0-2.1,0.6-3.2,1.7c-1.1,1.2-1.9,2.7-2.6,4.6
			c-0.7,1.9-1,3.9-1,6c0,1,0.2,1.8,0.6,2.3c0.4,0.5,0.9,0.8,1.7,0.8c1.7,0,3.3-1.1,4.8-3.2l0.6,0.3C581.2,377.3,580.6,378,580,378.6
			z"/>
		<linearGradient id="SVGID_19_" gradientUnits="userSpaceOnUse" x1="597.4543" y1="737.1275" x2="597.4543" y2="19.6542">
			<stop  offset="0.3137" style="stop-color:#8C5239"/>
			<stop  offset="1" style="stop-color:#C7BCB2"/>
		</linearGradient>
		<path class="st49" d="M600,378.6c-0.7,0.7-1.4,1.2-2.2,1.6s-1.7,0.6-2.5,0.6c-1.3,0-2.4-0.4-3.1-1.2c-0.7-0.8-1.1-1.9-1.1-3.4
			c0-1.6,0.5-3.4,1.4-5.5c0.9-2,2.2-3.8,3.9-5.2c1.6-1.4,3.4-2.1,5.3-2.1c0.7,0,1.3,0.2,1.7,0.5c0.4,0.4,0.7,0.9,0.7,1.6
			c0,1.7-1,3.2-2.9,4.5c-1.9,1.3-4.2,2.3-6.7,3.2c-0.2,1.1-0.4,2.1-0.4,3.1c0,2.1,0.7,3.1,2.2,3.1c1.8,0,3.5-1.1,4.9-3.2l0.5,0.3
			C601.2,377.3,600.7,378,600,378.6z M598.5,365.3c-0.8,0.8-1.6,1.9-2.4,3.2s-1.3,2.7-1.7,4.2c2.1-0.7,3.6-1.4,4.4-2.1
			c0.8-0.6,1.4-1.4,1.8-2.2c0.4-0.9,0.7-1.8,0.7-2.9c0-0.6,0-1-0.1-1.1c-0.1-0.2-0.2-0.3-0.4-0.3
			C600.1,364.1,599.4,364.5,598.5,365.3z"/>
		<linearGradient id="SVGID_20_" gradientUnits="userSpaceOnUse" x1="618.0261" y1="737.1275" x2="618.0261" y2="19.6542">
			<stop  offset="0.3137" style="stop-color:#8C5239"/>
			<stop  offset="1" style="stop-color:#C7BCB2"/>
		</linearGradient>
		<path class="st50" d="M619.2,365.1c1-1,2-1.6,3.1-1.6c1,0,1.8,0.4,2.4,1.1c0.6,0.8,0.9,1.9,0.9,3.4c0,1.7-0.4,3.6-1.1,5.6
			s-1.9,3.7-3.3,5.1c-1.4,1.4-3.1,2.1-4.9,2.1c-0.6,0-1.2-0.2-1.7-0.6s-0.8-0.9-1-1.6l-2.7,2.2l-0.5-0.2c0.3-0.5,0.5-1.1,0.6-1.8
			l5.6-19.8c0.1-0.4,0.1-0.6,0.1-0.9c0-0.4-0.2-0.8-0.5-1c-0.3-0.2-0.9-0.3-1.7-0.3l0.2-0.7c1.1,0,2.2-0.1,3-0.3
			c0.9-0.2,1.8-0.5,2.6-1l-4.1,15.1C617.2,367.8,618.2,366.1,619.2,365.1z M614.9,379.7c0.4,0.3,0.8,0.4,1.3,0.4
			c1.1,0,2.2-0.7,3.2-2.1c1-1.4,1.9-3.1,2.5-5.2s0.9-3.9,0.9-5.5c0-0.9-0.1-1.6-0.4-2.1s-0.6-0.7-1.1-0.7c-0.6,0-1.2,0.4-2,1.3
			c-0.7,0.9-1.5,2.1-2.3,3.5c-0.8,1.5-1.5,3.1-2.1,4.9l-1.1,4C614.2,379,614.6,379.4,614.9,379.7z"/>
		<linearGradient id="SVGID_21_" gradientUnits="userSpaceOnUse" x1="640.7463" y1="737.1275" x2="640.7463" y2="19.6542">
			<stop  offset="0.3137" style="stop-color:#8C5239"/>
			<stop  offset="1" style="stop-color:#C7BCB2"/>
		</linearGradient>
		<path class="st51" d="M635.1,370.4c0.7-1.9,1.8-3.6,3.2-4.9c1.4-1.3,3-2,4.9-2c1.4,0,2.4,0.4,3.2,1.3c0.8,0.8,1.2,2.1,1.2,3.8
			c0,1.7-0.4,3.5-1.1,5.4c-0.7,1.9-1.8,3.6-3.2,4.9c-1.4,1.3-3,2-4.9,2c-1.4,0-2.4-0.4-3.2-1.3s-1.2-2.1-1.2-3.8
			C633.9,374.1,634.3,372.3,635.1,370.4z M639.9,366.2c-1,1.4-1.8,3.1-2.3,5.2c-0.6,2.1-0.9,4.1-0.9,6c0,1.9,0.6,2.8,1.8,2.8
			c1.1,0,2.1-0.7,3.1-2.1c1-1.4,1.7-3.1,2.3-5.2c0.6-2.1,0.9-4.1,0.9-6c0-1-0.1-1.7-0.4-2.1c-0.3-0.4-0.8-0.7-1.4-0.7
			C641.9,364.1,640.9,364.8,639.9,366.2z"/>
		<linearGradient id="SVGID_22_" gradientUnits="userSpaceOnUse" x1="662.7556" y1="737.1275" x2="662.7556" y2="19.6542">
			<stop  offset="0.3137" style="stop-color:#8C5239"/>
			<stop  offset="1" style="stop-color:#C7BCB2"/>
		</linearGradient>
		<path class="st52" d="M657.1,370.4c0.7-1.9,1.8-3.6,3.2-4.9c1.4-1.3,3-2,4.9-2c1.4,0,2.4,0.4,3.2,1.3c0.8,0.8,1.2,2.1,1.2,3.8
			c0,1.7-0.4,3.5-1.1,5.4c-0.7,1.9-1.8,3.6-3.2,4.9c-1.4,1.3-3,2-4.9,2c-1.4,0-2.4-0.4-3.2-1.3s-1.2-2.1-1.2-3.8
			C655.9,374.1,656.3,372.3,657.1,370.4z M661.9,366.2c-1,1.4-1.8,3.1-2.3,5.2c-0.6,2.1-0.9,4.1-0.9,6c0,1.9,0.6,2.8,1.8,2.8
			c1.1,0,2.1-0.7,3.1-2.1c1-1.4,1.7-3.1,2.3-5.2c0.6-2.1,0.9-4.1,0.9-6c0-1-0.1-1.7-0.4-2.1c-0.3-0.4-0.8-0.7-1.4-0.7
			C663.9,364.1,662.9,364.8,661.9,366.2z"/>
		<linearGradient id="SVGID_23_" gradientUnits="userSpaceOnUse" x1="685.0171" y1="737.1275" x2="685.0171" y2="19.6542">
			<stop  offset="0.3137" style="stop-color:#8C5239"/>
			<stop  offset="1" style="stop-color:#C7BCB2"/>
		</linearGradient>
		<path class="st53" d="M685.7,369.7c0.6-0.7,1.3-1.7,1.8-2.9c0.6-1.3,1.1-2.1,1.7-2.5c0.6-0.5,1.3-0.7,1.9-0.7
			c0.7,0,1.2,0.2,1.5,0.5c0.3,0.3,0.4,0.8,0.4,1.4c-0.1,0.5-0.2,1-0.5,1.4c-0.3,0.4-0.7,0.7-1.3,0.7c-0.4,0-0.7-0.1-0.9-0.4
			s-0.3-0.6-0.3-0.9c0-0.3,0.1-0.6,0.3-1c0.2-0.4,0.4-0.7,0.7-1h-0.1c-0.4,0-0.8,0.1-1.2,0.4c-0.4,0.4-0.9,1.1-1.5,2.3
			c-0.5,1.2-1.1,2.1-1.6,2.8c-0.5,0.7-1.4,1.2-2.4,1.4c1.4,0.1,2.5,0.3,3.3,0.9c0.9,0.5,1.3,1.3,1.3,2.4c0,0.3,0,0.6-0.1,0.8
			l-0.6,3.2c-0.1,0.3-0.1,0.5-0.1,0.6c0,0.5,0.2,0.7,0.7,0.7c0.4,0,0.8-0.2,1.2-0.7c0.4-0.5,0.8-1.3,1.2-2.5l0.4-1.2h0.6l-0.8,2.3
			c-0.7,2.2-2,3.3-3.8,3.3c-0.6,0-1.1-0.2-1.5-0.5c-0.4-0.3-0.6-0.9-0.6-1.6c0-0.3,0-0.6,0.1-1l0.6-2.8c0.1-0.4,0.1-0.8,0.1-1.2
			c0-0.5-0.1-1-0.4-1.3c-0.2-0.3-0.6-0.6-1.2-0.8c-0.5-0.2-1.3-0.4-2.2-0.4l-2.7,9.1H677l6.3-21.3c0.1-0.4,0.2-0.7,0.2-0.9
			c0-0.4-0.2-0.7-0.5-0.9c-0.3-0.2-0.9-0.3-1.7-0.3l0.2-0.7c2.2,0,4.1-0.5,5.8-1.3l-4.7,15.9C684,370.8,685,370.4,685.7,369.7z"/>
	</g>
	<g class="st38">
		<linearGradient id="SVGID_24_" gradientUnits="userSpaceOnUse" x1="781.3154" y1="737.1275" x2="781.3154" y2="19.6542">
			<stop  offset="0.3137" style="stop-color:#8C5239"/>
			<stop  offset="1" style="stop-color:#C7BCB2"/>
		</linearGradient>
		<path class="st54" d="M780.4,378.5c0,0.3,0.1,0.6,0.2,0.7c0.1,0.2,0.4,0.3,0.7,0.4c0.3,0.1,0.7,0.1,1.3,0.1l-0.1,0.6
			c-1-0.1-2.4-0.1-4.1-0.1c-1.8,0-3.1,0-4.1,0.1l0.2-0.6c0.8,0,1.3-0.1,1.7-0.3c0.4-0.1,0.7-0.4,0.9-0.8c0.2-0.4,0.4-1,0.6-1.7
			l4.2-15.9c0.2-0.7,0.3-1.2,0.3-1.5c0-0.3-0.1-0.6-0.2-0.7c-0.1-0.2-0.4-0.3-0.7-0.4c-0.3-0.1-0.7-0.1-1.3-0.1l0.2-0.6
			c0.9,0.1,2.2,0.1,4.1,0.1c1.7,0,3.1,0,4.1-0.1l-0.2,0.6c-0.8,0-1.4,0.1-1.7,0.3c-0.4,0.1-0.7,0.4-0.9,0.8
			c-0.2,0.4-0.4,0.9-0.6,1.8l-4.2,15.9C780.5,377.7,780.4,378.2,780.4,378.5z"/>
		<linearGradient id="SVGID_25_" gradientUnits="userSpaceOnUse" x1="801.3945" y1="737.1275" x2="801.3945" y2="19.6542">
			<stop  offset="0.3137" style="stop-color:#8C5239"/>
			<stop  offset="1" style="stop-color:#C7BCB2"/>
		</linearGradient>
		<path class="st55" d="M808.6,377.5c-0.8,2.2-2,3.3-3.9,3.3c-1,0-1.6-0.3-2-0.9c-0.2-0.3-0.3-0.6-0.3-1c0-0.6,0.2-1.4,0.5-2.5
			l3-9.2c0.2-0.6,0.3-1.2,0.3-1.6c0-0.7-0.3-1.1-1-1.1c-0.8,0-1.8,0.6-2.8,1.8c-1,1.2-2,2.8-3,4.9c-1,2.1-1.9,4.4-2.6,6.9l-0.6,2.2
			h-2.8l3.8-13.7c0.2-0.5,0.2-0.9,0.2-1.2c0-0.5-0.2-0.8-0.7-0.8c-0.3,0-0.6,0.1-0.9,0.3s-0.5,0.5-0.8,1s-0.5,1.1-0.8,2l-0.4,1.2
			h-0.6l0.8-2.3c0.8-2.2,2-3.3,3.8-3.3c1.3,0,1.9,0.6,1.9,1.9c0,0.6-0.1,1.4-0.4,2.6l-1.1,4.4c0.9-2.2,1.8-3.9,2.6-5.2
			c0.8-1.3,1.7-2.2,2.6-2.8c0.9-0.6,1.8-0.9,2.8-0.9c1.7,0,2.6,0.8,2.6,2.4c0,0.6-0.2,1.4-0.5,2.4l-3.1,9.3
			c-0.2,0.5-0.3,0.9-0.3,1.2c0,0.5,0.3,0.8,0.8,0.8c0.4,0,0.9-0.2,1.3-0.7s0.8-1.3,1.2-2.5l0.4-1.2h0.6L808.6,377.5z"/>
		<linearGradient id="SVGID_26_" gradientUnits="userSpaceOnUse" x1="822.9902" y1="737.1275" x2="822.9902" y2="19.6542">
			<stop  offset="0.3137" style="stop-color:#8C5239"/>
			<stop  offset="1" style="stop-color:#C7BCB2"/>
		</linearGradient>
		<path class="st56" d="M820.8,380.2c1,0,1.8-0.3,2.3-0.9s0.9-1.4,0.9-2.4c0-0.7-0.1-1.3-0.4-2c-0.3-0.7-0.7-1.4-1.3-2.2
			c-0.5-0.7-0.9-1.2-1.1-1.6c-0.2-0.4-0.5-0.8-0.7-1.3c-0.2-0.5-0.3-1.1-0.3-1.7c0-0.9,0.2-1.7,0.7-2.4c0.4-0.7,1-1.2,1.8-1.6
			c0.8-0.4,1.6-0.6,2.5-0.6c1.1,0,2,0.2,2.8,0.6c0.8,0.4,1.1,1.1,1.1,2.2c0,0.2-0.1,0.5-0.2,0.7c-0.1,0.3-0.3,0.5-0.5,0.7
			c-0.2,0.2-0.5,0.3-0.8,0.3c-0.4,0-0.7-0.1-0.9-0.4c-0.2-0.3-0.4-0.6-0.4-1c0-0.7,0.3-1.4,0.9-2.1c-0.4-0.3-1-0.4-1.6-0.4
			c-0.8,0-1.5,0.3-2,0.8c-0.5,0.5-0.8,1.3-0.8,2.2c0,0.6,0.1,1,0.3,1.4c0.2,0.4,0.5,0.9,0.8,1.4c0.4,0.5,0.6,0.9,0.8,1.2
			c0.6,1,1.1,1.8,1.4,2.5c0.3,0.7,0.5,1.4,0.5,2.2c0,1-0.3,1.8-0.8,2.6s-1.2,1.4-2,1.8c-0.8,0.4-1.8,0.6-2.7,0.6
			c-1.2,0-2.3-0.3-3.1-0.8s-1.2-1.3-1.2-2.4c0-0.4,0.1-0.7,0.3-1c0.2-0.3,0.5-0.4,0.9-0.4c0.5,0,0.8,0.2,1.1,0.6
			c0.2,0.4,0.3,0.9,0.3,1.4c0,0.4-0.1,0.9-0.2,1.7C819.7,380.1,820.2,380.2,820.8,380.2z"/>
		<linearGradient id="SVGID_27_" gradientUnits="userSpaceOnUse" x1="842.5469" y1="737.1275" x2="842.5469" y2="19.6542">
			<stop  offset="0.3137" style="stop-color:#8C5239"/>
			<stop  offset="1" style="stop-color:#C7BCB2"/>
		</linearGradient>
		<path class="st57" d="M839.7,378.4c0,0.4,0.1,0.7,0.4,1c0.3,0.2,0.6,0.3,1,0.3c0.5,0,1-0.2,1.5-0.7c0.5-0.5,0.9-1.3,1.4-2.5
			l0.5-1.3h0.6l-0.7,2c-0.4,1.3-1,2.3-1.8,2.8s-1.6,0.8-2.6,0.8c-1,0-1.7-0.2-2.1-0.7c-0.5-0.5-0.7-1.1-0.7-2c0-0.5,0.1-1.1,0.3-1.8
			l3.4-11.8h-2.9l0.2-0.6h2.9l1.4-4.9c1.2,0,2.1-0.2,2.9-0.5l-1.5,5.3h4.2l-0.1,0.6h-4.3l-3.7,13.1
			C839.8,377.9,839.7,378.2,839.7,378.4z"/>
		<linearGradient id="SVGID_28_" gradientUnits="userSpaceOnUse" x1="860.8838" y1="737.1275" x2="860.8838" y2="19.6542">
			<stop  offset="0.3137" style="stop-color:#8C5239"/>
			<stop  offset="1" style="stop-color:#C7BCB2"/>
		</linearGradient>
		<path class="st58" d="M868.3,375.2l-0.8,2.3c-0.4,1.2-1,2-1.6,2.6s-1.3,0.8-2,0.8c-0.4,0-0.7-0.1-1.1-0.2
			c-0.3-0.2-0.5-0.4-0.7-0.6c-0.2-0.3-0.3-0.7-0.3-1.1c0-0.3,0-0.6,0.1-1c0.1-0.3,0.2-0.7,0.2-1c0.1-0.3,0.1-0.5,0.2-0.6l0.6-2.3
			c-1,2.4-2.1,4.1-3.1,5.2c-1.1,1.1-2.2,1.6-3.3,1.6c-1,0-1.7-0.4-2.2-1.1s-0.8-1.6-0.8-2.8c0-1.7,0.5-3.7,1.4-5.8
			c0.9-2.1,2.1-3.9,3.6-5.4c1.5-1.5,3-2.2,4.5-2.2c0.6,0,1,0.2,1.4,0.6c0.4,0.4,0.6,1,0.6,1.8l0.5-2c1.2,0,2.2-0.2,3-0.4l-4,14.1
			c-0.2,0.6-0.2,1-0.2,1.2c0,0.5,0.2,0.8,0.7,0.8c0.9,0,1.8-1.1,2.5-3.3l0.4-1.2H868.3z M864.5,366.9c0-0.9-0.2-1.5-0.5-2
			s-0.7-0.8-1.3-0.8c-0.9,0-1.9,0.7-2.9,2.1c-1,1.4-1.9,3.2-2.6,5.2c-0.7,2.1-1,4-1,5.9c0,0.9,0.1,1.5,0.3,1.9
			c0.2,0.4,0.5,0.6,0.8,0.6c0.6,0,1.3-0.5,2.1-1.4c0.8-0.9,1.6-2.1,2.4-3.6c0.8-1.5,1.5-3.1,2-4.9l0.6-2.3
			C864.5,367.3,864.5,367,864.5,366.9z"/>
		<linearGradient id="SVGID_29_" gradientUnits="userSpaceOnUse" x1="882.7998" y1="737.1275" x2="882.7998" y2="19.6542">
			<stop  offset="0.3137" style="stop-color:#8C5239"/>
			<stop  offset="1" style="stop-color:#C7BCB2"/>
		</linearGradient>
		<path class="st59" d="M885.9,378.6c0.5,0.2,0.9,0.5,1.2,0.8c0.3,0.3,0.4,0.8,0.4,1.3c0,0.8-0.4,1.7-1.1,2.6
			c-0.7,0.9-1.8,1.7-3.2,2.3c-1.4,0.6-3.2,1-5.2,1c-1.6,0-2.8-0.2-3.6-0.6s-1.2-1-1.2-1.7c0-1.7,1.8-3.2,5.5-4.6
			c-0.8-0.3-1.2-0.9-1.2-1.7c0-0.5,0.1-0.9,0.4-1.3c0.3-0.4,0.7-0.9,1.5-1.4c0.7-0.5,1.7-1.1,3.1-1.7c-1.3,0-2.4-0.3-3.2-0.9
			c-0.8-0.6-1.2-1.4-1.2-2.6c0-0.9,0.3-1.9,0.8-2.9c0.5-1,1.3-1.9,2.4-2.6c1.1-0.7,2.4-1.1,4.1-1.1c0.6,0,1.2,0.1,1.6,0.2
			c0.7-1.1,1.4-1.9,2.1-2.4c0.7-0.5,1.4-0.7,2.1-0.7c0.9,0,1.4,0.4,1.4,1.1c0,0.3-0.1,0.6-0.3,0.9c-0.2,0.3-0.4,0.5-0.7,0.7
			c-0.3,0.2-0.6,0.3-0.9,0.3c-0.3,0-0.5-0.1-0.7-0.3c-0.2-0.2-0.3-0.4-0.3-0.7c0-0.4,0.1-0.8,0.4-1.1c0,0-0.1-0.1-0.2-0.1
			c-0.2,0-0.4,0.1-0.8,0.3c-0.6,0.4-1.1,1.1-1.8,2.1c1.6,0.5,2.4,1.6,2.4,3.3c0,1-0.3,1.9-0.8,2.9c-0.5,0.9-1.3,1.7-2.3,2.4
			c-1,0.7-2.1,1-3.3,1.2c-0.3,0.2-0.9,0.5-1.6,0.9c-0.7,0.4-1.3,0.7-1.6,1c-0.4,0.3-0.5,0.6-0.5,0.8c0,0.4,0.6,0.8,1.9,1.1l2.3,0.6
			C884.7,378.2,885.4,378.4,885.9,378.6z M875.9,383.7c0,0.8,0.3,1.3,0.8,1.7s1.3,0.6,2.2,0.6c1,0,2-0.2,3-0.6
			c1-0.4,1.8-0.9,2.5-1.5c0.7-0.6,1-1.3,1-2.1c0-0.2-0.1-0.4-0.3-0.5c-0.2-0.1-0.5-0.2-0.9-0.3c-0.4-0.1-0.6-0.2-0.8-0.2l-4.3-1.1
			C877,381,875.9,382.3,875.9,383.7z M885.3,371.9c0.6-0.7,1.1-1.6,1.3-2.7c0.2-1,0.4-2,0.4-3.1c0-1.4-0.6-2.1-1.9-2.1
			c-1.1,0-1.9,0.5-2.6,1.4c-0.6,0.9-1.1,1.9-1.3,3c-0.3,1.1-0.4,1.9-0.4,2.5c0,0.7,0.2,1.3,0.5,1.6c0.3,0.3,0.8,0.5,1.4,0.5
			C883.8,373,884.7,372.6,885.3,371.9z"/>
		<linearGradient id="SVGID_30_" gradientUnits="userSpaceOnUse" x1="904.7773" y1="737.1275" x2="904.7773" y2="19.6542">
			<stop  offset="0.3137" style="stop-color:#8C5239"/>
			<stop  offset="1" style="stop-color:#C7BCB2"/>
		</linearGradient>
		<path class="st60" d="M905.2,367c0.7-1.2,1.4-2.1,2.1-2.7c0.7-0.6,1.5-0.8,2.3-0.8c0.6,0,1,0.2,1.4,0.5c0.3,0.3,0.5,0.8,0.5,1.3
			c0,0.4-0.1,0.8-0.3,1.2c-0.2,0.4-0.5,0.6-0.8,0.8c-0.3,0.2-0.7,0.3-1.1,0.3c-0.4,0-0.7-0.1-0.9-0.3s-0.4-0.5-0.4-0.9
			c0-1,0.5-1.6,1.4-2c-0.1-0.1-0.2-0.1-0.4-0.1c-0.8,0-1.6,0.6-2.4,1.7s-1.7,2.7-2.6,4.7c-0.9,2-1.7,4.4-2.5,7l-0.7,2.7h-2.8
			l3.8-13.7c0.2-0.5,0.2-0.9,0.2-1.3c0-0.5-0.2-0.7-0.7-0.7c-0.5,0-0.9,0.3-1.3,0.8c-0.4,0.5-0.8,1.3-1.2,2.5l-0.4,1.2H898l0.8-2.3
			c0.8-2.2,2-3.3,3.9-3.3c1.2,0,1.8,0.6,1.8,1.9c0,0.3,0,0.7-0.1,1.1s-0.2,0.9-0.3,1.5l-1,4.1C903.8,369.9,904.5,368.3,905.2,367z"
			/>
		<linearGradient id="SVGID_31_" gradientUnits="userSpaceOnUse" x1="924.1777" y1="737.1275" x2="924.1777" y2="19.6542">
			<stop  offset="0.3137" style="stop-color:#8C5239"/>
			<stop  offset="1" style="stop-color:#C7BCB2"/>
		</linearGradient>
		<path class="st61" d="M931.6,375.2l-0.8,2.3c-0.4,1.2-1,2-1.6,2.6s-1.3,0.8-2,0.8c-0.4,0-0.7-0.1-1.1-0.2
			c-0.3-0.2-0.5-0.4-0.7-0.6c-0.2-0.3-0.3-0.7-0.3-1.1c0-0.3,0-0.6,0.1-1c0.1-0.3,0.2-0.7,0.2-1c0.1-0.3,0.1-0.5,0.2-0.6l0.6-2.3
			c-1,2.4-2.1,4.1-3.1,5.2c-1.1,1.1-2.2,1.6-3.3,1.6c-1,0-1.7-0.4-2.2-1.1s-0.8-1.6-0.8-2.8c0-1.7,0.5-3.7,1.4-5.8
			c0.9-2.1,2.1-3.9,3.6-5.4c1.5-1.5,3-2.2,4.5-2.2c0.6,0,1,0.2,1.4,0.6c0.4,0.4,0.6,1,0.6,1.8l0.5-2c1.2,0,2.2-0.2,3-0.4l-4,14.1
			c-0.2,0.6-0.2,1-0.2,1.2c0,0.5,0.2,0.8,0.7,0.8c0.9,0,1.8-1.1,2.5-3.3l0.4-1.2H931.6z M927.8,366.9c0-0.9-0.2-1.5-0.5-2
			c-0.3-0.5-0.7-0.8-1.3-0.8c-0.9,0-1.9,0.7-2.9,2.1c-1,1.4-1.9,3.2-2.6,5.2c-0.7,2.1-1,4-1,5.9c0,0.9,0.1,1.5,0.3,1.9
			c0.2,0.4,0.5,0.6,0.8,0.6c0.6,0,1.3-0.5,2.1-1.4c0.8-0.9,1.6-2.1,2.4-3.6c0.8-1.5,1.5-3.1,2-4.9l0.6-2.3
			C927.8,367.3,927.8,367,927.8,366.9z"/>
		<linearGradient id="SVGID_32_" gradientUnits="userSpaceOnUse" x1="952.1719" y1="737.1275" x2="952.1719" y2="19.6542">
			<stop  offset="0.3137" style="stop-color:#8C5239"/>
			<stop  offset="1" style="stop-color:#C7BCB2"/>
		</linearGradient>
		<path class="st62" d="M963,377.5c-0.8,2.2-2,3.3-3.9,3.3c-0.9,0-1.6-0.3-2-0.9c-0.2-0.3-0.3-0.6-0.3-1.1c0-0.6,0.2-1.4,0.5-2.5
			l3-9.2c0.2-0.7,0.3-1.3,0.3-1.7c0-0.7-0.2-1-0.7-1c-0.8,0-1.7,0.6-2.7,1.9c-1,1.3-2,3.1-3,5.4c-1,2.3-2,4.9-2.9,7.9l0-0.2
			l-0.2,0.8h-2.9l4-13.2c0.2-0.7,0.3-1.2,0.3-1.6c0-0.7-0.3-1-0.9-1c-0.8,0-1.7,0.6-2.6,1.8c-1,1.2-1.9,2.9-2.9,5
			c-0.9,2.1-1.8,4.4-2.5,7l-0.5,2.1h-2.8l3.8-13.7c0.2-0.5,0.2-0.9,0.2-1.2c0-0.5-0.2-0.8-0.7-0.8c-0.5,0-0.9,0.3-1.3,0.8
			c-0.4,0.5-0.8,1.3-1.2,2.5l-0.4,1.2h-0.6l0.8-2.3c0.8-2.2,2-3.3,3.9-3.3c1.2,0,1.9,0.6,1.9,1.9c0,0.6-0.2,1.5-0.5,2.5l-1,4
			c0.9-2.1,1.7-3.8,2.5-5c0.8-1.2,1.6-2.1,2.4-2.7s1.7-0.8,2.6-0.8c1.4,0,2.1,0.8,2.1,2.3c0,0.7-0.1,1.5-0.4,2.6l-1.1,4.2
			c0.9-2.2,1.7-4,2.5-5.3c0.8-1.3,1.6-2.3,2.4-2.9c0.8-0.6,1.7-0.9,2.7-0.9c0.8,0,1.4,0.2,1.7,0.6c0.4,0.4,0.5,1,0.5,1.7
			c0,0.7-0.2,1.5-0.5,2.4l-3.1,9.3c-0.2,0.5-0.2,0.9-0.2,1.2c0,0.5,0.3,0.8,0.8,0.8c0.4,0,0.9-0.2,1.3-0.7c0.4-0.5,0.8-1.3,1.2-2.5
			l0.4-1.2h0.6L963,377.5z"/>
	</g>
</g>
<g id="лого">
</g>
<g id="бортики">
</g>
</svg>
